<svg width="70" height="70" viewBox="0 0 70 70" fill="none" xmlns="http://www.w3.org/2000/svg">
<mask id="mask0_5_214" style="mask-type:luminance" maskUnits="userSpaceOnUse" x="0" y="26" width="70" height="18">
<path d="M0 26.4688H70V43.5312H0V26.4688Z" fill="white"/>
</mask>
<g mask="url(#mask0_5_214)">
<path d="M27.7266 40.1406H29.9141L25.9219 28.7656H23.3516L19.3594 40.1406H21.5469L22.4766 37.3516H26.7422L27.7266 40.1406ZM23.0234 35.6562L24.5547 31.0625H24.6641L26.1953 35.6562H23.0234ZM32.1016 35.1641V40.1953H30.0781V31.6094H31.9922V33.0859H32.1016C32.3203 32.5937 32.5938 32.2109 33.0312 31.9375C33.4688 31.6641 34.0156 31.5 34.6172 31.5C35.2188 31.5 35.7109 31.6094 36.1484 31.8828C36.5859 32.1562 36.9141 32.4844 37.1875 32.9766C37.4062 33.4687 37.5703 34.0156 37.5703 34.7266V40.1406H35.5469V35C35.5469 34.4531 35.3828 33.9609 35.1094 33.6328C34.8359 33.3047 34.3984 33.1406 33.9062 33.1406C33.5781 33.1406 33.25 33.1953 32.9766 33.3594C32.7031 33.5234 32.4844 33.7422 32.3203 34.0156C32.1562 34.3984 32.1016 34.7266 32.1016 35.1641ZM42 43.5312C41.2891 43.5312 40.6328 43.4219 40.1406 43.2578C39.6484 43.0391 39.2109 42.8203 38.8828 42.4922C38.5547 42.1641 38.3359 41.7812 38.2266 41.3984L40.0312 40.9609C40.0859 41.125 40.25 41.2891 40.4141 41.4531C40.5781 41.6172 40.7969 41.7812 41.0703 41.8906C41.3438 42 41.6719 42.0547 42.0547 42.0547C42.6016 42.0547 43.0938 41.8906 43.4766 41.6172C43.8594 41.3437 44.0234 40.9062 44.0234 40.25V38.6094H43.9141C43.8047 38.8281 43.6406 39.0469 43.4766 39.2656C43.2578 39.4844 43.0391 39.6484 42.7109 39.8125C42.3828 39.9766 42 40.0312 41.5078 40.0312C40.8516 40.0312 40.25 39.8672 39.7031 39.5391C39.1562 39.2109 38.7734 38.7734 38.4453 38.1719C38.1172 37.5703 37.9531 36.8047 37.9531 35.875C37.9531 34.9453 38.1172 34.125 38.4453 33.4687C38.7734 32.8125 39.1562 32.3203 39.7031 31.9922C40.25 31.6641 40.8516 31.5 41.5078 31.5C42 31.5 42.4375 31.5547 42.7656 31.7734C43.0938 31.9375 43.3672 32.1562 43.5312 32.375C43.75 32.5937 43.8594 32.8125 43.9688 33.0312H44.0781V31.6094H46.0469V40.3047C46.0469 41.0156 45.8828 41.6172 45.5 42.1094C45.1719 42.6016 44.6797 42.9297 44.0781 43.2031C43.4766 43.4219 42.7656 43.5312 42 43.5312ZM42 38.4453C42.4375 38.4453 42.7656 38.3359 43.0938 38.1172C43.3672 37.8984 43.6406 37.625 43.75 37.2422C43.9141 36.8594 43.9688 36.3672 43.9688 35.8203C43.9688 35.2734 43.9141 34.8359 43.75 34.3984C43.5859 34.0156 43.3672 33.6875 43.0938 33.4687C42.8203 33.25 42.4375 33.1406 42 33.1406C41.5625 33.1406 41.1797 33.25 40.8516 33.4687C40.5781 33.6875 40.3047 34.0156 40.1953 34.3984C40.0312 34.7812 39.9766 35.2734 39.9766 35.7656C39.9766 36.2578 40.0312 36.75 40.1953 37.1328C40.3594 37.5156 40.5781 37.8437 40.8516 38.0625C41.1797 38.3359 41.5625 38.4453 42 38.4453ZM52.1172 36.5313V31.6094H54.1406V40.1406H52.1719V38.6094H52.0625C51.8438 39.1016 51.5703 39.4844 51.1328 39.7578C50.6953 40.0859 50.1484 40.1953 49.4922 40.1953C48.9453 40.1953 48.4531 40.0859 48.0156 39.8125C47.5781 39.5391 47.25 39.2109 47.0312 38.7188C46.8125 38.2266 46.6484 37.6797 46.6484 36.9687V31.5547H48.6719V36.6953C48.6719 37.2422 48.8359 37.6797 49.1094 38.0078C49.3828 38.3359 49.8203 38.5 50.2578 38.5C50.5312 38.5 50.8594 38.4453 51.1328 38.2812C51.4062 38.1172 51.625 37.8984 51.8438 37.625C52.0078 37.3516 52.1172 36.9688 52.1172 36.5313ZM56.8203 28.7656V40.1406H54.7969V28.7656H56.8203ZM59.9922 40.3047C59.4453 40.3047 58.9531 40.1953 58.5156 40.0312C58.0781 39.8125 57.75 39.5391 57.4766 39.1562C57.2031 38.7734 57.0938 38.2812 57.0938 37.7344C57.0938 37.2422 57.2031 36.8594 57.3672 36.5313C57.5312 36.2031 57.8047 35.9844 58.0781 35.7656C58.4062 35.6016 58.7344 35.4375 59.1172 35.3281C59.5 35.2187 59.8828 35.1641 60.3203 35.1094C60.8125 35.0547 61.25 35 61.5234 34.9453C61.8516 34.8906 62.0703 34.8359 62.1797 34.7266C62.3438 34.6172 62.3984 34.5078 62.3984 34.2891V34.2344C62.3984 33.7969 62.2891 33.4687 62.0156 33.25C61.7422 33.0312 61.4141 32.9219 60.9219 32.9219C60.4297 32.9219 60.0469 33.0312 59.7734 33.25C59.5 33.4687 59.2812 33.7422 59.1719 34.0156L57.3125 33.7422C57.4766 33.25 57.6953 32.8125 58.0234 32.4297C58.3516 32.1016 58.7891 31.8281 59.2812 31.6641C59.7734 31.5 60.3203 31.3906 60.9219 31.3906C61.3594 31.3906 61.7422 31.4453 62.1797 31.5547C62.6172 31.6641 62.9453 31.8281 63.2734 32.0469C63.6016 32.2656 63.875 32.5391 64.0938 32.9219C64.3125 33.3047 64.4219 33.7969 64.4219 34.3437V40.0859H62.5078V38.9375H62.4531C62.3438 39.1562 62.1797 39.375 61.9609 39.5938C61.7422 39.8125 61.4688 39.9766 61.1406 40.0859C60.8125 40.25 60.4297 40.3047 59.9922 40.3047ZM60.5391 38.8281C60.9219 38.8281 61.3047 38.7734 61.5781 38.6094C61.8516 38.4453 62.125 38.2266 62.2891 37.9531C62.4531 37.6797 62.5078 37.4063 62.5078 37.0781V36.0937C62.4531 36.1484 62.3438 36.2031 62.1797 36.2578C62.0156 36.3125 61.8516 36.3125 61.6875 36.3672C61.5234 36.4219 61.3047 36.4219 61.1406 36.4766C60.9766 36.4766 60.8125 36.5313 60.6484 36.5313C60.375 36.5859 60.1016 36.6406 59.8281 36.75C59.6094 36.8594 59.3906 36.9688 59.2812 37.1328C59.1172 37.2969 59.0625 37.5156 59.0625 37.7891C59.0625 38.1719 59.1719 38.4453 59.4453 38.6094C59.7734 38.7187 60.1016 38.8281 60.5391 38.8281ZM65.1328 40.1406V31.6094H67.1016V33.0312H67.2109C67.375 32.5391 67.6484 32.1562 68.0312 31.8828C68.4141 31.6094 68.8516 31.5 69.3438 31.5H69.7266C69.8906 31.5 70 31.5 70.0547 31.5547V33.3594C69.9453 33.3047 69.8359 33.3047 69.6719 33.3047C69.5078 33.3047 69.3438 33.25 69.125 33.25C68.7422 33.25 68.4141 33.3047 68.1406 33.4687C67.8672 33.6328 67.6484 33.8516 67.4297 34.125C67.2656 34.3984 67.1562 34.7266 67.1562 35.1094V40.1406H65.1328ZM15.8047 29.2578L15.2578 38.2266L9.78906 26.4688L15.8047 29.2578ZM12.0312 40.9063L7.875 43.2578L3.71875 40.9063L4.64844 38.8281H11.2109L12.0312 40.9063ZM7.92969 30.9531L10.1172 36.2031H5.79688C5.74219 36.2031 7.92969 30.9531 7.92969 30.9531ZM0.546875 38.2266L0 29.2578L6.01562 26.4688L0.546875 38.2266Z" fill="url(#paint0_linear_5_214)"/>
<path d="M27.7266 40.1406H29.9141L25.9219 28.7656H23.3516L19.3594 40.1406H21.5469L22.4766 37.3516H26.7422L27.7266 40.1406ZM23.0234 35.6562L24.5547 31.0625H24.6641L26.1953 35.6562H23.0234ZM32.1016 35.1641V40.1953H30.0781V31.6094H31.9922V33.0859H32.1016C32.3203 32.5937 32.5938 32.2109 33.0312 31.9375C33.4688 31.6641 34.0156 31.5 34.6172 31.5C35.2188 31.5 35.7109 31.6094 36.1484 31.8828C36.5859 32.1562 36.9141 32.4844 37.1875 32.9766C37.4062 33.4687 37.5703 34.0156 37.5703 34.7266V40.1406H35.5469V35C35.5469 34.4531 35.3828 33.9609 35.1094 33.6328C34.8359 33.3047 34.3984 33.1406 33.9062 33.1406C33.5781 33.1406 33.25 33.1953 32.9766 33.3594C32.7031 33.5234 32.4844 33.7422 32.3203 34.0156C32.1562 34.3984 32.1016 34.7266 32.1016 35.1641ZM42 43.5312C41.2891 43.5312 40.6328 43.4219 40.1406 43.2578C39.6484 43.0391 39.2109 42.8203 38.8828 42.4922C38.5547 42.1641 38.3359 41.7812 38.2266 41.3984L40.0312 40.9609C40.0859 41.125 40.25 41.2891 40.4141 41.4531C40.5781 41.6172 40.7969 41.7812 41.0703 41.8906C41.3438 42 41.6719 42.0547 42.0547 42.0547C42.6016 42.0547 43.0938 41.8906 43.4766 41.6172C43.8594 41.3437 44.0234 40.9062 44.0234 40.25V38.6094H43.9141C43.8047 38.8281 43.6406 39.0469 43.4766 39.2656C43.2578 39.4844 43.0391 39.6484 42.7109 39.8125C42.3828 39.9766 42 40.0312 41.5078 40.0312C40.8516 40.0312 40.25 39.8672 39.7031 39.5391C39.1562 39.2109 38.7734 38.7734 38.4453 38.1719C38.1172 37.5703 37.9531 36.8047 37.9531 35.875C37.9531 34.9453 38.1172 34.125 38.4453 33.4687C38.7734 32.8125 39.1562 32.3203 39.7031 31.9922C40.25 31.6641 40.8516 31.5 41.5078 31.5C42 31.5 42.4375 31.5547 42.7656 31.7734C43.0938 31.9375 43.3672 32.1562 43.5312 32.375C43.75 32.5937 43.8594 32.8125 43.9688 33.0312H44.0781V31.6094H46.0469V40.3047C46.0469 41.0156 45.8828 41.6172 45.5 42.1094C45.1719 42.6016 44.6797 42.9297 44.0781 43.2031C43.4766 43.4219 42.7656 43.5312 42 43.5312ZM42 38.4453C42.4375 38.4453 42.7656 38.3359 43.0938 38.1172C43.3672 37.8984 43.6406 37.625 43.75 37.2422C43.9141 36.8594 43.9688 36.3672 43.9688 35.8203C43.9688 35.2734 43.9141 34.8359 43.75 34.3984C43.5859 34.0156 43.3672 33.6875 43.0938 33.4687C42.8203 33.25 42.4375 33.1406 42 33.1406C41.5625 33.1406 41.1797 33.25 40.8516 33.4687C40.5781 33.6875 40.3047 34.0156 40.1953 34.3984C40.0312 34.7812 39.9766 35.2734 39.9766 35.7656C39.9766 36.2578 40.0312 36.75 40.1953 37.1328C40.3594 37.5156 40.5781 37.8437 40.8516 38.0625C41.1797 38.3359 41.5625 38.4453 42 38.4453ZM52.1172 36.5313V31.6094H54.1406V40.1406H52.1719V38.6094H52.0625C51.8438 39.1016 51.5703 39.4844 51.1328 39.7578C50.6953 40.0859 50.1484 40.1953 49.4922 40.1953C48.9453 40.1953 48.4531 40.0859 48.0156 39.8125C47.5781 39.5391 47.25 39.2109 47.0312 38.7188C46.8125 38.2266 46.6484 37.6797 46.6484 36.9687V31.5547H48.6719V36.6953C48.6719 37.2422 48.8359 37.6797 49.1094 38.0078C49.3828 38.3359 49.8203 38.5 50.2578 38.5C50.5312 38.5 50.8594 38.4453 51.1328 38.2812C51.4062 38.1172 51.625 37.8984 51.8438 37.625C52.0078 37.3516 52.1172 36.9688 52.1172 36.5313ZM56.8203 28.7656V40.1406H54.7969V28.7656H56.8203ZM59.9922 40.3047C59.4453 40.3047 58.9531 40.1953 58.5156 40.0312C58.0781 39.8125 57.75 39.5391 57.4766 39.1562C57.2031 38.7734 57.0938 38.2812 57.0938 37.7344C57.0938 37.2422 57.2031 36.8594 57.3672 36.5313C57.5312 36.2031 57.8047 35.9844 58.0781 35.7656C58.4062 35.6016 58.7344 35.4375 59.1172 35.3281C59.5 35.2187 59.8828 35.1641 60.3203 35.1094C60.8125 35.0547 61.25 35 61.5234 34.9453C61.8516 34.8906 62.0703 34.8359 62.1797 34.7266C62.3438 34.6172 62.3984 34.5078 62.3984 34.2891V34.2344C62.3984 33.7969 62.2891 33.4687 62.0156 33.25C61.7422 33.0312 61.4141 32.9219 60.9219 32.9219C60.4297 32.9219 60.0469 33.0312 59.7734 33.25C59.5 33.4687 59.2812 33.7422 59.1719 34.0156L57.3125 33.7422C57.4766 33.25 57.6953 32.8125 58.0234 32.4297C58.3516 32.1016 58.7891 31.8281 59.2812 31.6641C59.7734 31.5 60.3203 31.3906 60.9219 31.3906C61.3594 31.3906 61.7422 31.4453 62.1797 31.5547C62.6172 31.6641 62.9453 31.8281 63.2734 32.0469C63.6016 32.2656 63.875 32.5391 64.0938 32.9219C64.3125 33.3047 64.4219 33.7969 64.4219 34.3437V40.0859H62.5078V38.9375H62.4531C62.3438 39.1562 62.1797 39.375 61.9609 39.5938C61.7422 39.8125 61.4688 39.9766 61.1406 40.0859C60.8125 40.25 60.4297 40.3047 59.9922 40.3047ZM60.5391 38.8281C60.9219 38.8281 61.3047 38.7734 61.5781 38.6094C61.8516 38.4453 62.125 38.2266 62.2891 37.9531C62.4531 37.6797 62.5078 37.4063 62.5078 37.0781V36.0937C62.4531 36.1484 62.3438 36.2031 62.1797 36.2578C62.0156 36.3125 61.8516 36.3125 61.6875 36.3672C61.5234 36.4219 61.3047 36.4219 61.1406 36.4766C60.9766 36.4766 60.8125 36.5313 60.6484 36.5313C60.375 36.5859 60.1016 36.6406 59.8281 36.75C59.6094 36.8594 59.3906 36.9688 59.2812 37.1328C59.1172 37.2969 59.0625 37.5156 59.0625 37.7891C59.0625 38.1719 59.1719 38.4453 59.4453 38.6094C59.7734 38.7187 60.1016 38.8281 60.5391 38.8281ZM65.1328 40.1406V31.6094H67.1016V33.0312H67.2109C67.375 32.5391 67.6484 32.1562 68.0312 31.8828C68.4141 31.6094 68.8516 31.5 69.3438 31.5H69.7266C69.8906 31.5 70 31.5 70.0547 31.5547V33.3594C69.9453 33.3047 69.8359 33.3047 69.6719 33.3047C69.5078 33.3047 69.3438 33.25 69.125 33.25C68.7422 33.25 68.4141 33.3047 68.1406 33.4687C67.8672 33.6328 67.6484 33.8516 67.4297 34.125C67.2656 34.3984 67.1562 34.7266 67.1562 35.1094V40.1406H65.1328ZM15.8047 29.2578L15.2578 38.2266L9.78906 26.4688L15.8047 29.2578ZM12.0312 40.9063L7.875 43.2578L3.71875 40.9063L4.64844 38.8281H11.2109L12.0312 40.9063ZM7.92969 30.9531L10.1172 36.2031H5.79688C5.74219 36.2031 7.92969 30.9531 7.92969 30.9531ZM0.546875 38.2266L0 29.2578L6.01562 26.4688L0.546875 38.2266Z" fill="url(#paint1_radial_5_214)"/>
</g>
<defs>
<linearGradient id="paint0_linear_5_214" x1="0" y1="35" x2="70" y2="35" gradientUnits="userSpaceOnUse">
<stop stop-color="#F0070C"/>
<stop offset="0.526" stop-color="#CC26D5"/>
<stop offset="1" stop-color="#7702FF"/>
</linearGradient>
<radialGradient id="paint1_radial_5_214" cx="0" cy="0" r="1" gradientUnits="userSpaceOnUse" gradientTransform="translate(21.7169 22.0175) rotate(118.122) scale(14.6307)">
<stop stop-color="#FF41F8"/>
<stop offset="0.707" stop-color="#FF41F8" stop-opacity="0.5"/>
<stop offset="1" stop-color="#FF41F8" stop-opacity="0"/>
</radialGradient>
</defs>
</svg>
