<svg width="47" height="47" viewBox="0 0 47 47" fill="none" xmlns="http://www.w3.org/2000/svg">
<g filter="url(#filter0_di_10_49)">
<path d="M23.4999 3.08331C14.9992 3.08331 8.08325 9.99929 8.08325 18.5C8.08325 27.0007 14.9992 33.9166 23.4999 33.9166C32.0006 33.9166 38.9166 27.0007 38.9166 18.5C38.9166 9.99929 32.0006 3.08331 23.4999 3.08331ZM23.4999 5.39581C30.7509 5.39581 36.6041 11.2491 36.6041 18.5C36.6041 24.4087 32.7167 29.3861 27.3541 31.0275V27.0845C27.3541 25.6122 26.5056 24.3495 25.2795 23.7212C26.4717 23.4931 27.5788 23.0408 28.5088 22.4019C29.4387 21.7629 30.1648 20.9557 30.6268 20.0473C31.0887 19.1389 31.2731 18.1555 31.1648 17.1786C31.0565 16.2018 30.6585 15.2597 30.0038 14.4305C30.3457 13.3781 30.7277 11.5322 29.8202 10.0795C28.0705 10.0795 26.9414 11.2789 26.4026 12.0247C25.4814 11.7221 24.4957 11.5651 23.4999 11.5625C22.5035 11.5634 21.5167 11.7188 20.5942 12.0202C20.0541 11.274 18.926 10.0795 17.1797 10.0795C16.1382 11.7466 16.782 13.5393 17.127 14.2709C16.4281 15.0965 15.9899 16.0454 15.8499 17.0361C15.7099 18.0269 15.8723 19.0301 16.3231 19.9596C16.774 20.8892 17.4999 21.7174 18.4386 22.3733C19.3773 23.0293 20.5008 23.4933 21.7129 23.7257C20.706 24.2446 19.952 25.1862 19.721 26.3288H18.7078C17.708 26.3288 17.3196 25.9225 16.7792 25.2372C16.2458 24.552 15.6722 24.0915 14.9831 23.9003C14.6116 23.861 14.3613 24.1436 14.685 24.3941C15.7788 25.1388 15.8543 26.3575 16.2929 27.1553C16.6922 27.8737 17.5103 28.5208 18.4353 28.5208H19.6458V31.0275C14.2831 29.3861 10.3958 24.4087 10.3958 18.5C10.3958 11.2491 16.249 5.39581 23.4999 5.39581Z" fill="white"/>
</g>
<defs>
<filter id="filter0_di_10_49" x="0.083252" y="0.083313" width="46.8333" height="46.8333" filterUnits="userSpaceOnUse" color-interpolation-filters="sRGB">
<feFlood flood-opacity="0" result="BackgroundImageFix"/>
<feColorMatrix in="SourceAlpha" type="matrix" values="0 0 0 0 0 0 0 0 0 0 0 0 0 0 0 0 0 0 127 0" result="hardAlpha"/>
<feOffset dy="5"/>
<feGaussianBlur stdDeviation="4"/>
<feComposite in2="hardAlpha" operator="out"/>
<feColorMatrix type="matrix" values="0 0 0 0 0 0 0 0 0 0 0 0 0 0 0 0 0 0 0.45 0"/>
<feBlend mode="normal" in2="BackgroundImageFix" result="effect1_dropShadow_10_49"/>
<feBlend mode="normal" in="SourceGraphic" in2="effect1_dropShadow_10_49" result="shape"/>
<feColorMatrix in="SourceAlpha" type="matrix" values="0 0 0 0 0 0 0 0 0 0 0 0 0 0 0 0 0 0 127 0" result="hardAlpha"/>
<feOffset dy="-2"/>
<feGaussianBlur stdDeviation="9.55"/>
<feComposite in2="hardAlpha" operator="arithmetic" k2="-1" k3="1"/>
<feColorMatrix type="matrix" values="0 0 0 0 0 0 0 0 0 0 0 0 0 0 0 0 0 0 0.21 0"/>
<feBlend mode="normal" in2="shape" result="effect2_innerShadow_10_49"/>
</filter>
</defs>
</svg>
