<svg width="55" height="48" viewBox="0 0 55 48" fill="none" xmlns="http://www.w3.org/2000/svg">
<path d="M3.4375 6.85714H51.5625C53.625 6.85714 55 5.48571 55 3.42857C55 1.37143 53.625 0 51.5625 0H3.4375C1.375 0 0 1.37143 0 3.42857C0 5.48571 1.375 6.85714 3.4375 6.85714ZM3.4375 27.4286H51.5625C53.625 27.4286 55 26.0571 55 24C55 21.9429 53.625 20.5714 51.5625 20.5714H3.4375C1.375 20.5714 0 21.9429 0 24C0 26.0571 1.375 27.4286 3.4375 27.4286ZM3.4375 48H51.5625C53.625 48 55 46.6286 55 44.5714C55 42.5143 53.625 41.1429 51.5625 41.1429H3.4375C1.375 41.1429 0 42.5143 0 44.5714C0 46.6286 1.375 48 3.4375 48Z" fill="black"/>
</svg>
