<svg width="76" height="76" viewBox="0 0 76 76" fill="none" xmlns="http://www.w3.org/2000/svg">
<path d="M31.22 40.2663C31.22 40.2663 29.2701 41.401 32.6099 41.7846C36.6557 42.2465 38.7238 42.18 43.1816 41.3375C43.1816 41.3375 44.3567 42.0719 45.993 42.7084C35.9967 46.9912 23.3688 42.4603 31.22 40.2663ZM29.9974 34.6762C29.9974 34.6762 27.81 36.2965 31.1523 36.6421C35.4748 37.088 38.887 37.1248 44.796 35.9872C44.796 35.9872 45.6113 36.8161 46.8955 37.2679C34.8115 40.8031 21.3518 37.5464 29.9974 34.6762Z" fill="#0074BD"/>
<path d="M40.2949 25.1934C42.7595 28.0303 39.6489 30.5811 39.6489 30.5811C39.6489 30.5811 45.9028 27.3529 43.0309 23.3088C40.3477 19.5391 38.2915 17.667 49.4261 11.2094C49.4261 11.2094 31.9473 15.5735 40.2949 25.1934Z" fill="#EA2D2E"/>
<path d="M53.5159 44.4012C53.5159 44.4012 54.9599 45.5917 51.9258 46.512C46.157 48.2594 27.9122 48.7867 22.8446 46.5815C21.0241 45.7888 24.44 44.6892 25.5141 44.4582C26.6345 44.2154 27.2745 44.2599 27.2745 44.2599C25.2487 42.8331 14.1794 47.0618 21.6523 48.2748C42.0322 51.5779 58.8015 46.7869 53.5159 44.4012ZM32.1587 28.8842C32.1587 28.8842 22.879 31.0887 28.8729 31.8903C31.4047 32.2287 36.448 32.151 41.1493 31.7567C44.9902 31.4343 48.8449 30.745 48.8449 30.745C48.8449 30.745 47.4917 31.3257 46.5114 31.9942C37.0862 34.4731 18.8825 33.3183 24.1235 30.7842C28.5547 28.6401 32.1587 28.8842 32.1587 28.8842ZM48.8063 38.1882C58.3864 33.2114 53.9565 28.4282 50.8648 29.0724C50.109 29.2303 49.7693 29.3669 49.7693 29.3669C49.7693 29.3669 50.0514 28.9251 50.5875 28.7357C56.7043 26.5863 61.4074 35.0776 48.6151 38.4406C48.6151 38.4406 48.7617 38.3076 48.8063 38.1882Z" fill="#0074BD"/>
<path d="M43.0314 0.779594C43.0314 0.779594 48.3366 6.08713 37.9988 14.247C29.7088 20.7943 36.1083 24.5266 37.9952 28.7927C33.1562 24.4263 29.6067 20.5823 31.9877 17.0056C35.4842 11.7557 45.1713 9.20906 43.0314 0.779594Z" fill="#EA2D2E"/>
<path d="M33.101 51.6794C42.2946 52.2672 56.417 51.3523 56.7513 47.0018C56.7513 47.0018 56.1088 48.6507 49.1519 49.9593C41.3037 51.4366 31.6226 51.265 25.8822 50.3173C25.8822 50.3173 27.0578 51.2911 33.101 51.6794Z" fill="#0074BD"/>
<path d="M56.3267 59.4825H56.0465V59.3257H56.8005V59.4825H56.5215V60.2644H56.3261L56.3267 59.4825ZM57.8319 59.5217H57.8283L57.5504 60.2644H57.4222L57.1461 59.5217H57.1431V60.2644H56.9579V59.3257H57.2292L57.4851 59.9901L57.7416 59.3257H58.0112V60.2644H57.8319V59.5217ZM31.5941 68.3032C30.7272 69.0549 29.8104 69.4777 28.9869 69.4777C27.8148 69.4777 27.1789 68.7735 27.1789 67.6459C27.1789 66.4258 27.8594 65.5322 30.5859 65.5322H31.5935L31.5941 68.3032ZM33.9875 71.0036V62.6454C33.9875 60.5085 32.7685 59.0989 29.833 59.0989C28.1194 59.0989 26.6172 59.5228 25.3959 60.062L25.7474 61.5422C26.7093 61.1889 27.9532 60.8612 29.1739 60.8612C30.8661 60.8612 31.5935 61.5422 31.5935 62.9518V64.008H30.748C26.6386 64.008 24.7843 65.6023 24.7843 67.9998C24.7843 70.0655 26.0063 71.2393 28.3071 71.2393C29.7855 71.2393 30.8905 70.6289 31.9218 69.7353L32.1094 71.0042L33.9875 71.0036ZM41.9746 71.0036H38.9898L35.397 59.3133H38.0042L40.2343 66.497L40.7301 68.6553C41.8558 65.5334 42.6538 62.3639 43.0528 59.3138H45.5888C44.9101 63.1619 43.687 67.3877 41.9746 71.0036ZM53.4268 68.3032C52.557 69.0549 51.6397 69.4777 50.8191 69.4777C49.6458 69.4777 49.0105 68.7735 49.0105 67.6459C49.0105 66.4258 49.6928 65.5322 52.4163 65.5322H53.4263L53.4268 68.3032ZM55.8214 71.0036V62.6454C55.8214 60.5085 54.5989 59.0989 51.6658 59.0989C49.9504 59.0989 48.4488 59.5228 47.2275 60.062L47.5796 61.5422C48.5415 61.1889 49.7872 60.8612 51.0079 60.8612C52.6977 60.8612 53.4268 61.5422 53.4268 62.9518V64.008H52.5813C48.4708 64.008 46.6171 65.6023 46.6171 67.9998C46.6171 70.0655 47.8379 71.2393 50.1381 71.2393C51.6171 71.2393 52.7203 70.6289 53.7546 69.7353L53.9434 71.0042L55.8214 71.0036ZM22.16 72.9903C21.4789 73.9872 20.3758 74.7763 19.1693 75.221L17.9883 73.8287C18.9068 73.3572 19.6935 72.5966 20.0599 71.8877C20.3758 71.2565 20.507 70.4449 20.507 68.5027V55.154H23.0506V68.3193C23.0506 70.9169 22.844 71.9672 22.16 72.9903Z" fill="#EA2D2E"/>
</svg>
