<svg width="51" height="69" viewBox="0 0 51 69" fill="none" xmlns="http://www.w3.org/2000/svg">
<path d="M16.2136 52.7914C16.2136 52.7914 13.6066 54.3084 18.0713 54.8203C23.481 55.4383 26.2454 55.3497 32.2053 54.2231C32.2053 54.2231 33.7754 55.2048 35.964 56.0557C22.5989 61.7815 5.71739 55.7238 16.2136 52.7914ZM14.5795 45.3184C14.5795 45.3184 11.6548 47.4834 16.1233 47.9461C21.9022 48.5427 26.4647 48.5914 34.3638 47.0711C34.3638 47.0711 35.4537 48.1785 37.1704 48.7834C21.0146 53.5084 3.0202 49.1552 14.5795 45.3184Z" fill="white"/>
<path d="M28.346 32.6396C31.6409 36.4322 27.4819 39.842 27.4819 39.842C27.4819 39.842 35.8431 35.5266 32.004 30.1202C28.4171 25.0807 25.6674 22.5777 40.5544 13.9436C40.5544 13.9442 17.1859 19.7788 28.346 32.6396Z" fill="white"/>
<path d="M46.0216 58.3198C46.0216 58.3198 47.9515 59.9112 43.8953 61.1411C36.1833 63.4774 11.7905 64.1817 5.01576 61.2346C2.58162 60.1748 7.14803 58.7053 8.58467 58.3952C10.0826 58.0709 10.9379 58.13 10.9379 58.13C8.2292 56.2231 -6.56924 61.8761 3.42217 63.4976C30.668 67.9142 53.0877 61.5086 46.0216 58.3198ZM17.4687 37.5741C17.4687 37.5741 5.06225 40.5212 13.0756 41.5925C16.4597 42.0453 23.2026 41.9414 29.4879 41.4142C34.623 40.9827 39.7762 40.0613 39.7762 40.0613C39.7762 40.0613 37.9672 40.8373 36.6569 41.7309C24.0558 45.0455 -0.281268 43.5016 6.72584 40.1132C12.6496 37.2481 17.4687 37.5741 17.4687 37.5741ZM39.7248 50.0138C52.5332 43.36 46.6105 36.9654 42.4767 37.8267C41.4661 38.0373 41.0127 38.2205 41.0127 38.2205C41.0127 38.2205 41.389 37.6304 42.1065 37.3767C50.2839 34.5028 56.5719 45.8549 39.4689 50.3513C39.4689 50.3502 39.6652 50.1724 39.7248 50.0138Z" fill="white"/>
<path d="M32.0039 0C32.0039 0 39.0958 7.09625 25.2757 18.0048C14.1928 26.758 22.7486 31.7477 25.2719 37.4511C18.8018 31.6143 14.0561 26.4753 17.2394 21.6929C21.9141 14.6743 34.8646 11.27 32.0039 0Z" fill="white"/>
<path d="M18.7275 68.0498C31.019 68.8357 49.8994 67.6123 50.3461 61.7958C50.3461 61.7958 49.487 64.0008 40.1869 65.7502C29.6945 67.7255 16.7511 67.4953 9.07678 66.2282C9.07678 66.2287 10.649 67.5303 18.7275 68.0498Z" fill="white"/>
</svg>
