<svg width="70" height="70" viewBox="0 0 70 70" fill="none" xmlns="http://www.w3.org/2000/svg">
<g clip-path="url(#clip0_5_262)">
<path d="M59.4946 24.3912C56.8821 24.3409 54.3911 25.0305 52.2594 26.9998C47.8002 31.1265 47.6668 38.1888 51.9739 42.467C52.7505 43.2381 53.6731 43.9491 54.6859 44.3822C54.9511 43.4924 54.8992 42.4173 54.815 41.3607C54.7953 41.3394 54.7756 41.3197 54.7592 41.2962C54.477 40.8762 54.6859 39.7731 54.6859 39.2727C56.4687 39.5877 57.9168 40.5672 59.8238 39.999C61.6886 39.4417 62.4679 36.7527 60.8229 35.4769C59.8303 34.7085 58.3549 34.8135 57.184 34.9552C56.4818 35.0394 55.6014 35.2986 55.1168 34.5499C54.8286 34.1102 55.125 33.0291 55.1732 32.5303L55.2169 32.0972C55.3416 30.5659 55.5428 29.021 55.5428 27.4898H63.1078V24.8664C61.8932 24.5891 60.6813 24.4141 59.494 24.3917L59.4946 24.3912Z" fill="#DC514A"/>
<path d="M62.9957 24.902V29.5165H57.5001L57.2157 33.0652C58.4347 32.9695 59.564 32.754 60.7825 33.0416C61.6181 33.2369 62.4012 33.6312 62.9831 34.2716C64.6018 36.056 64.2814 39.4045 62.4231 40.9106C61.8964 41.3377 61.2938 41.6172 60.6567 41.796C60.094 41.9707 59.5084 42.0601 58.9193 42.0613C58.7071 42.0722 58.4949 42.0793 58.2843 42.0793C57.3678 42.081 56.4553 41.9581 55.5718 41.714C55.3503 41.6516 55.0047 41.5636 54.7865 41.4023L54.6449 41.37L54.5732 44.3499C60.2356 47.3523 67.4521 44.141 69.4827 38.2473C71.1999 33.2664 68.541 26.2106 62.9957 24.902Z" fill="#23A161"/>
<path d="M35.4933 27.3312C34.7512 27.621 34.9475 29.5662 35.9177 29.2113C36.7686 28.8996 36.4902 26.9418 35.4933 27.3312ZM3.87626 27.4898V39.1311C3.87626 40.5081 4.27001 42.6584 3.34688 43.8145C2.47735 44.9061 1.19767 44.5036 0.0218852 44.4544C0.0218852 44.7005 -0.0606929 45.1287 0.0940728 45.3348C0.381182 45.7209 1.32126 45.5897 1.7347 45.5897C3.07728 45.5875 4.33345 44.9662 4.72064 43.6029C5.21665 41.8507 4.94485 39.801 4.94485 37.9952V27.4898H3.87626ZM8.72704 27.4898V35.0853C8.72704 36.639 8.5947 38.2665 9.32587 39.6987C11.0622 43.103 17.1276 43.0456 18.9585 39.7687C19.752 38.3447 19.6459 36.6587 19.6459 35.0853V27.4898H18.5052V35.157C18.5052 36.5405 18.6791 38.0122 17.9829 39.2727C16.4899 41.9776 11.7217 41.8813 10.3179 39.1311C9.65017 37.823 9.79837 36.2912 9.79837 34.872V27.4898H8.72704ZM38.272 32.1043H39.8431V38.4912C39.8431 39.5292 39.8131 40.7569 40.6317 41.5357C41.6019 42.4605 43.1556 42.2127 44.3374 41.9688V41.1184C43.5132 41.1534 42.5223 41.4974 41.7692 40.9981C40.9139 40.4305 40.9117 39.3318 40.9117 38.4223V32.1037H44.0524V31.1812H40.9117V28.6262C39.7217 28.6305 40.3638 30.2586 39.789 30.9395C39.2383 31.5946 38.2742 30.987 38.272 32.1043ZM24.3578 32.6725H24.2856L24.1424 31.1817H23.2149V41.9694H24.2856V36.9305C24.2856 35.7509 24.2468 34.5171 24.8429 33.4529C25.789 31.7554 29.0341 31.2856 30.2356 32.9569C30.8295 33.7859 30.7792 35.035 30.7792 36.0079V41.9688H31.7784V36.0079C31.7784 34.848 31.8741 33.5836 31.2862 32.5303C30.0694 30.3537 25.4844 30.4188 24.3573 32.672M35.2034 31.1812V41.9683H36.2742V31.1806L35.2034 31.1812Z" fill="#737373"/>
</g>
<defs>
<clipPath id="clip0_5_262">
<rect width="70" height="70" fill="white"/>
</clipPath>
</defs>
</svg>
