<svg width="75" height="75" viewBox="0 0 75 75" fill="none" xmlns="http://www.w3.org/2000/svg">
<path d="M18.75 37.5H5.11353V23.8635H18.75L11.8243 30.5742L18.75 37.5Z" fill="url(#paint0_radial_5_238)"/>
<path d="M34.4491 23.8635H31.8416L25.926 30.1184V23.8635H23.8635V37.4842H25.926V30.8988L31.8809 37.4842H34.575L28.2329 30.4324L34.4491 23.8635ZM42.1577 27.9738C41.3481 27.5302 40.4397 27.2976 39.5166 27.2976C38.5934 27.2976 37.685 27.5302 36.8754 27.9738C36.097 28.4146 35.4529 29.0587 35.0122 29.8371C34.5522 30.6529 34.3168 31.5761 34.3301 32.5125C34.3162 33.4471 34.5499 34.3687 35.0075 35.1838C35.4438 35.9651 36.0868 36.6112 36.8661 37.0512C37.6749 37.4949 38.5826 37.7275 39.5051 37.7275C40.4277 37.7275 41.3354 37.4949 42.1442 37.0512C42.925 36.6102 43.5706 35.9646 44.0116 35.1838C44.4701 34.369 44.7046 33.4473 44.6913 32.5125C44.707 31.5767 44.4741 30.6534 44.0163 29.8371C43.5779 29.0584 42.9353 28.4142 42.1577 27.9738ZM42.1717 34.2797C41.9243 34.7745 41.5457 35.1918 41.0772 35.4861C40.6049 35.7691 40.0647 35.9185 39.5142 35.9185C38.9637 35.9185 38.4235 35.7691 37.9512 35.4861C37.4801 35.1926 37.099 34.775 36.8497 34.2791C36.5769 33.7308 36.4402 33.1248 36.4512 32.5125C36.4401 31.8992 36.5768 31.2923 36.8497 30.743C37.0932 30.2455 37.4733 29.8275 37.9454 29.5378C38.4176 29.2481 38.9624 29.0987 39.5163 29.107C40.0674 29.1003 40.6089 29.2511 41.0772 29.5418C41.5465 29.8348 41.9245 30.2508 42.1717 30.7482C42.4459 31.2949 42.5836 31.9014 42.5719 32.5125C42.5835 33.1253 42.4462 33.7317 42.1717 34.2797ZM48.9715 25.0307H47.0538V26.7428C47.0713 26.9555 47.0057 27.1682 46.8704 27.3328C46.7872 27.4028 46.691 27.4557 46.5873 27.4884C46.4837 27.521 46.3745 27.5329 46.2663 27.5232H45.1471L45.1377 29.274H46.9278L46.9366 35.1012C46.9366 35.8406 47.161 36.4219 47.6098 36.8473C48.0563 37.2732 48.6739 37.4842 49.4567 37.4842H51.3059V35.7328H49.7977C49.5756 35.7445 49.3582 35.6666 49.1959 35.516C49.1188 35.4352 49.0591 35.3394 49.0205 35.2346C48.9819 35.1298 48.9652 35.0182 48.9715 34.9066L48.9622 29.274H51.3059L51.3153 27.5232H48.9715V25.0307ZM52.9424 37.4842H54.9774V23.8635H52.9424V37.4842ZM57.3141 25.9371H59.4452V23.8629H57.3141V25.9371ZM57.3645 37.4842H59.4065V27.5232H57.3645V37.4842ZM70.0653 29.1463C69.7835 28.5744 69.3402 28.0978 68.7903 27.7752C68.2107 27.4668 67.5663 27.3002 66.9099 27.289C66.2534 27.2778 65.6037 27.4223 65.0139 27.7107C64.492 27.997 64.0607 28.4236 63.7688 28.9424V27.5232H61.7842V37.4842H63.8286V31.8809C63.8151 31.3629 63.9199 30.8487 64.135 30.3773C64.3227 29.9721 64.625 29.6307 65.0045 29.3953C65.4042 29.1578 65.8628 29.0379 66.3276 29.0496C67.0032 29.0496 67.527 29.2582 67.9049 29.6725C68.2799 30.0867 68.4674 30.668 68.4698 31.4139V37.4842H70.5118V31.1988C70.5273 30.4888 70.3743 29.7857 70.0653 29.1463ZM26.594 44.2951C26.3253 44.1333 26.017 44.0493 25.7034 44.0525C25.4455 44.0506 25.191 44.1118 24.9622 44.2307C24.7395 44.3479 24.5497 44.5189 24.4102 44.7322L24.4307 42.8232H23.8723V44.1369H23.87V47.7146H24.4079V47.117C24.5456 47.3297 24.7354 47.5014 24.9598 47.6209C25.1883 47.7416 25.445 47.8014 25.704 47.799C26.0169 47.8024 26.3246 47.7194 26.5934 47.5592C26.8622 47.399 27.0816 47.1677 27.2274 46.8908C27.3787 46.5916 27.4576 46.2611 27.4576 45.9258C27.4576 45.5905 27.3787 45.2599 27.2274 44.9607C27.0805 44.6856 26.8615 44.4555 26.594 44.2951ZM26.7106 46.6453C26.6122 46.8469 26.4586 47.0162 26.2711 47.1352C26.0845 47.2497 25.8699 47.3103 25.6509 47.3103C25.432 47.3103 25.2173 47.2497 25.0307 47.1352C24.8406 47.0163 24.6876 46.8466 24.5889 46.6453C24.4827 46.4202 24.4276 46.1744 24.4276 45.9255C24.4276 45.6766 24.4827 45.4308 24.5889 45.2057C24.6874 45.0064 24.8409 44.8371 25.0307 44.7182C25.2173 44.6037 25.432 44.5431 25.6509 44.5431C25.8699 44.5431 26.0845 44.6037 26.2711 44.7182C26.4586 44.8371 26.6122 45.007 26.7106 45.2057C26.8168 45.4308 26.8718 45.6766 26.8718 45.9255C26.8718 46.1744 26.8168 46.4202 26.7106 46.6453ZM29.3151 46.6705L28.2329 44.1369H27.6422L29.0174 47.332L28.3612 48.8338H28.9377L30.9563 44.1369H30.3657L29.3151 46.6705ZM34.353 46.6318C34.3612 46.7447 34.3326 46.8572 34.2716 46.9524C34.2105 47.0477 34.1203 47.1207 34.0143 47.1604C33.9441 47.1862 33.8691 47.1964 33.7946 47.1902H32.7528V47.7146H33.8631C34.06 47.7188 34.2522 47.6754 34.4256 47.5887C34.5834 47.5101 34.7143 47.3866 34.8018 47.2336C34.8932 47.0689 34.9389 46.8838 34.9342 46.6957V42.8227H34.353V46.6318ZM38.4545 44.2928C38.1925 44.1319 37.8902 44.0486 37.5827 44.0525C37.2658 44.0497 36.9544 44.1345 36.6827 44.2975C36.4157 44.4611 36.1976 44.6934 36.051 44.9701C35.8987 45.2656 35.8192 45.5933 35.8192 45.9258C35.8192 46.2583 35.8987 46.5859 36.051 46.8814C36.1975 47.158 36.4149 47.3912 36.6827 47.5541C36.9528 47.7187 37.2645 47.8037 37.5827 47.799C37.8317 47.8014 38.0813 47.7557 38.3127 47.6643C38.5295 47.5816 38.7247 47.4533 38.8893 47.2887C39.0358 47.1445 39.1366 46.9594 39.1776 46.7578H38.6192C38.5782 46.8697 38.5073 46.9658 38.4135 47.0414C38.3064 47.1281 38.1845 47.1948 38.0538 47.2383C37.9132 47.2868 37.7653 47.3108 37.6166 47.3092C37.4065 47.3139 37.1991 47.2612 37.0168 47.1567C36.8344 47.0522 36.684 46.8999 36.5819 46.7162C36.4706 46.5129 36.4061 46.2885 36.3944 46.06H39.2713V45.927C39.2788 45.5915 39.205 45.2592 39.0563 44.9584C38.9215 44.6849 38.7131 44.4544 38.4545 44.2928ZM36.4108 45.6041C36.4448 45.3064 36.5825 45.0316 36.7975 44.8236C37.0125 44.6308 37.2941 44.5292 37.5827 44.54C37.8592 44.526 38.1317 44.6268 38.3356 44.8189C38.5389 45.0316 38.6649 45.3088 38.693 45.6041H36.4108ZM40.7362 43.2422H40.217V43.8574C40.2206 43.8956 40.2165 43.9341 40.205 43.9708C40.1935 44.0074 40.1749 44.0413 40.1502 44.0707C40.121 44.0954 40.0871 44.1139 40.0506 44.1253C40.0141 44.1366 39.9756 44.1406 39.9375 44.1369H39.535L39.5303 44.6338H40.1731L40.1778 46.9406C40.1661 47.1539 40.2469 47.3596 40.4004 47.5084C40.5715 47.6549 40.7913 47.7281 41.0157 47.7146H41.5764V47.2201H41.0526C41.0101 47.2239 40.9673 47.2183 40.9272 47.2037C40.8871 47.1891 40.8507 47.166 40.8205 47.1358C40.7903 47.1056 40.7672 47.0692 40.7526 47.0291C40.738 46.989 40.7324 46.9462 40.7362 46.9037L40.7344 44.6338H41.5764L41.5788 44.1369H40.7362V43.2422ZM45.0188 45.1758C45.2549 45.1135 45.4629 44.9729 45.6088 44.7771C45.7548 44.5813 45.8299 44.3417 45.8221 44.0977C45.8269 43.8644 45.7598 43.6353 45.6299 43.4414C45.498 43.2443 45.3144 43.0874 45.0991 42.9879C44.8576 42.8755 44.5937 42.8192 44.3274 42.8232H42.3844V47.7146H44.369C44.6502 47.7192 44.9287 47.6597 45.1834 47.5406C45.412 47.4352 45.6071 47.2682 45.7465 47.0572C45.8813 46.8516 45.9528 46.6066 45.9481 46.36C45.9551 46.0863 45.8659 45.8188 45.6961 45.6041C45.5251 45.3891 45.2864 45.2378 45.0188 45.1758ZM42.9428 43.3406H44.3274C44.4856 43.3383 44.6438 43.3723 44.7874 43.4414C44.9163 43.5053 45.0235 43.6037 45.0991 43.7273C45.1723 43.858 45.211 44.0045 45.2086 44.1551C45.2105 44.3048 45.1727 44.4524 45.0991 44.5828C45.0251 44.7068 44.9171 44.8071 44.7879 44.8717C44.6452 44.9433 44.487 44.9787 44.3274 44.9748H42.9434L42.9428 43.3406ZM45.2133 46.7854C45.1313 46.9178 45.0141 47.0232 44.8723 47.09C44.7153 47.1655 44.5425 47.2023 44.3684 47.1973H42.9434V45.4781H44.3696C44.5436 45.4758 44.717 45.5127 44.8729 45.5883C45.0124 45.6545 45.1313 45.7576 45.2139 45.89C45.2959 46.023 45.3375 46.1789 45.3352 46.3342C45.3375 46.4947 45.2959 46.6506 45.2133 46.7854ZM47.8793 44.2811C47.6894 44.4109 47.5391 44.5908 47.4452 44.8008V44.1369H46.8868V47.7146H47.4452V45.7869C47.4397 45.5773 47.4843 45.3694 47.5752 45.1805C47.6555 45.0182 47.7838 44.8834 47.9415 44.7937C48.1155 44.7023 48.3077 44.6566 48.5045 44.6613H48.6329V44.1029H48.525C48.2971 44.0971 48.072 44.1591 47.8793 44.2811ZM51.2649 44.2031C51.0467 44.1007 50.8081 44.0492 50.567 44.0525C50.3246 44.0503 50.0847 44.1011 49.8639 44.2014C49.6629 44.2904 49.4842 44.4299 49.3495 44.6057C49.2188 44.7779 49.1385 44.9836 49.1204 45.1992H49.6653C49.6789 45.0712 49.7271 44.9492 49.8047 44.8465C49.8868 44.741 49.9946 44.659 50.1159 44.6062C50.2534 44.5485 50.4014 44.5195 50.5506 44.5213C50.6965 44.519 50.8412 44.5488 50.9743 44.6086C51.0915 44.6637 51.1893 44.748 51.2602 44.8582C51.3293 44.9701 51.3633 45.0984 51.361 45.2309C51.3661 45.3208 51.3421 45.41 51.2924 45.4852C51.271 45.5143 51.2437 45.5386 51.2121 45.5564C51.1806 45.5742 51.1457 45.5851 51.1096 45.5883L50.0631 45.6908C49.8639 45.7096 49.67 45.7711 49.4959 45.8725C49.3341 45.9646 49.1985 46.0968 49.1022 46.2563C49.0084 46.4121 48.9581 46.5902 48.9604 46.7719C48.9581 46.9611 49.0131 47.1469 49.1186 47.3021C49.2258 47.4627 49.3764 47.5887 49.5551 47.6684C49.752 47.758 49.9694 47.8031 50.1868 47.799C50.4252 47.8037 50.6631 47.7486 50.8758 47.6432C51.0751 47.5453 51.2444 47.3941 51.368 47.2084V47.7146H51.9129V45.2332C51.9174 45.017 51.8576 44.8043 51.7413 44.6221C51.6247 44.4407 51.4597 44.2955 51.2649 44.2031ZM51.361 46.3477C51.3633 46.5311 51.3153 46.7121 51.2239 46.8697C51.1343 47.0223 51.0046 47.1473 50.8489 47.2313C50.6831 47.3214 50.4967 47.3664 50.3081 47.3619C50.1676 47.3646 50.0281 47.3381 49.8985 47.284C49.7872 47.2376 49.6907 47.1616 49.6196 47.0643C49.5527 46.9693 49.5174 46.8558 49.5188 46.7396C49.5188 46.6342 49.5463 46.5287 49.5985 46.4373C49.6551 46.3415 49.734 46.2607 49.8284 46.2017C49.9229 46.1428 50.0301 46.1074 50.1411 46.0986L51.361 45.9727V46.3477ZM52.8399 43.4871H53.4417V42.8232H52.8399V43.4871ZM52.8604 47.7146H53.4211V44.1369H52.8604V47.7146ZM56.8038 44.226C56.5892 44.1141 56.3513 44.0548 56.1094 44.0527C55.8675 44.0507 55.6285 44.106 55.4122 44.2143C55.2181 44.3251 55.0596 44.4889 54.9551 44.6865V44.1369H54.4167V47.7146H54.975V45.6844C54.9708 45.4731 55.0138 45.2634 55.101 45.0709C55.179 44.9062 55.3026 44.7662 55.4584 44.6701C55.6225 44.574 55.8083 44.5236 56.0004 44.5283C56.2407 44.5148 56.4745 44.6063 56.6415 44.7803C56.8038 44.9771 56.8864 45.2285 56.87 45.4828V47.7146H57.429V45.4576C57.434 45.2017 57.3782 44.9483 57.2661 44.7182C57.1637 44.5122 57.0029 44.341 56.8038 44.226ZM60.6446 46.0137C60.4361 45.8186 60.1718 45.6937 59.8887 45.6562L59.2735 45.549C59.1351 45.5287 59.0059 45.4675 58.9026 45.3732C58.8585 45.3309 58.8238 45.2799 58.8006 45.2234C58.7774 45.1669 58.7662 45.1062 58.7678 45.0451C58.7658 44.9437 58.7998 44.8448 58.8639 44.7662C58.9348 44.6795 59.0286 44.6156 59.1334 44.5764C59.3873 44.4869 59.6646 44.4894 59.9168 44.5834C60.0241 44.6268 60.1184 44.6977 60.1893 44.7914C60.2539 44.8791 60.2891 44.9849 60.2901 45.0938H60.8485C60.8485 44.9016 60.7887 44.7117 60.6786 44.5512C60.5607 44.3886 60.4001 44.2618 60.2145 44.185C59.9916 44.0934 59.7523 44.0483 59.5114 44.0525C59.2787 44.0482 59.0475 44.0909 58.8317 44.1779C58.6536 44.2494 58.4977 44.3725 58.3876 44.5307C58.2821 44.6865 58.2276 44.8717 58.2323 45.0592C58.2289 45.1818 58.2506 45.3039 58.2963 45.4178C58.342 45.5317 58.4105 45.635 58.4977 45.7213C58.7016 45.9105 58.96 46.0301 59.2348 46.067L59.8295 46.1672C59.9784 46.1877 60.1184 46.2539 60.228 46.357C60.3217 46.4531 60.3745 46.5814 60.3698 46.7162C60.3725 46.8336 60.3372 46.9487 60.269 47.0443C60.1958 47.1439 60.0956 47.2201 59.9807 47.2635C59.8432 47.3179 59.6962 47.3444 59.5483 47.3414C59.3955 47.3439 59.2437 47.3161 59.1018 47.2594C58.9798 47.2105 58.8725 47.1308 58.7907 47.0279C58.7152 46.9308 58.6727 46.8122 58.6694 46.6893H58.1086C58.1086 46.8949 58.1731 47.0988 58.2938 47.2682C58.4221 47.4422 58.5985 47.5793 58.8 47.6596C59.0426 47.758 59.3034 47.8061 59.5665 47.799C59.8114 47.8061 60.054 47.758 60.2784 47.6643C60.4659 47.5816 60.6288 47.4486 60.7454 47.2793C60.8549 47.1076 60.9123 46.9066 60.9077 46.7027C60.9127 46.5761 60.892 46.4497 60.8467 46.3312C60.8015 46.2128 60.7327 46.1048 60.6446 46.0137Z" fill="white"/>
<defs>
<radialGradient id="paint0_radial_5_238" cx="0" cy="0" r="1" gradientUnits="userSpaceOnUse" gradientTransform="translate(18.3223 24.3867) scale(15.6464)">
<stop offset="0.003" stop-color="#E44857"/>
<stop offset="0.469" stop-color="#C711E1"/>
<stop offset="1" stop-color="#7F52FF"/>
</radialGradient>
</defs>
</svg>
