<svg width="33" height="33" viewBox="0 0 33 33" fill="none" xmlns="http://www.w3.org/2000/svg">
<g filter="url(#filter0_di_10_31)">
<path fill-rule="evenodd" clip-rule="evenodd" d="M29 25H24V16.2512C24 13.8512 22.9413 12.5122 21.0425 12.5122C18.9763 12.5122 17.75 13.9075 17.75 16.2512V25H12.75V8.75H17.75V10.5774C17.75 10.5774 19.3187 7.82471 22.8537 7.82471C26.39 7.82471 29 9.98263 29 14.4476V25ZM7.0525 6.15112C5.36625 6.15112 4 4.7737 4 3.07495C4 1.37745 5.36625 0 7.0525 0C8.7375 0 10.1037 1.37745 10.1037 3.07495C10.105 4.7737 8.7375 6.15112 7.0525 6.15112ZM4 25H10.25V8.75H4V25Z" fill="white"/>
</g>
<defs>
<filter id="filter0_di_10_31" x="0" y="-2" width="33" height="35" filterUnits="userSpaceOnUse" color-interpolation-filters="sRGB">
<feFlood flood-opacity="0" result="BackgroundImageFix"/>
<feColorMatrix in="SourceAlpha" type="matrix" values="0 0 0 0 0 0 0 0 0 0 0 0 0 0 0 0 0 0 127 0" result="hardAlpha"/>
<feOffset dy="4"/>
<feGaussianBlur stdDeviation="2"/>
<feComposite in2="hardAlpha" operator="out"/>
<feColorMatrix type="matrix" values="0 0 0 0 0 0 0 0 0 0 0 0 0 0 0 0 0 0 0.25 0"/>
<feBlend mode="normal" in2="BackgroundImageFix" result="effect1_dropShadow_10_31"/>
<feBlend mode="normal" in="SourceGraphic" in2="effect1_dropShadow_10_31" result="shape"/>
<feColorMatrix in="SourceAlpha" type="matrix" values="0 0 0 0 0 0 0 0 0 0 0 0 0 0 0 0 0 0 127 0" result="hardAlpha"/>
<feOffset dy="-2"/>
<feGaussianBlur stdDeviation="1.2"/>
<feComposite in2="hardAlpha" operator="arithmetic" k2="-1" k3="1"/>
<feColorMatrix type="matrix" values="0 0 0 0 0 0 0 0 0 0 0 0 0 0 0 0 0 0 0.18 0"/>
<feBlend mode="normal" in2="shape" result="effect2_innerShadow_10_31"/>
</filter>
</defs>
</svg>
