<svg width="70" height="70" viewBox="0 0 70 70" fill="none" xmlns="http://www.w3.org/2000/svg">
<path d="M47.0247 41.6035C47.3704 38.7259 47.267 38.3037 49.4102 38.7696L49.9544 38.8177C51.6026 38.8927 53.759 38.5525 55.025 37.9641C57.7517 36.6991 59.3683 34.586 56.6798 35.1411C50.5466 36.406 50.125 34.3301 50.125 34.3301C56.6016 24.7209 59.3092 12.5234 56.9724 9.5375C50.5991 1.39344 39.5665 5.24453 39.3816 5.34461L39.3226 5.35609C38.1107 5.10398 36.755 4.95414 35.2314 4.92953C32.456 4.88414 30.35 5.65742 28.7526 6.86875C28.7526 6.86875 9.07107 -1.23977 9.98654 17.0658C10.1812 20.9601 15.5685 46.5325 21.9937 38.8084C24.342 35.9844 26.6115 33.5962 26.6115 33.5962C27.7386 34.3448 29.0878 34.7266 30.5031 34.5893L30.6125 34.4963C30.5786 34.8469 30.5933 35.1898 30.6568 35.5955C29.0014 37.4456 29.4881 37.7705 26.1784 38.4513C22.8304 39.1415 24.7976 40.3698 26.0811 40.6908C27.6386 41.0807 31.2397 41.6325 33.6739 38.2249L33.5771 38.6138C34.2268 39.1333 34.1825 42.3473 34.2744 44.6436C34.3662 46.9399 34.5204 49.0826 34.9886 50.347C35.4567 51.6102 36.009 54.8647 40.3583 53.9328C43.9929 53.153 46.7715 52.0319 47.0247 41.6035Z" fill="#336791"/>
<path d="M38.9419 56.2023C37.018 56.2023 35.7657 55.4586 35.0044 54.74C33.856 53.6566 33.4004 52.2605 33.1287 51.4265L33.0111 51.0781C32.4631 49.5988 32.2777 47.4693 32.1678 44.7273C32.1516 44.2986 32.1379 43.8698 32.1268 43.441C32.1175 43.1123 32.106 42.7 32.0896 42.2674C31.3965 42.598 30.6608 42.8306 29.9037 42.9587C28.5475 43.1905 27.0895 43.1151 25.5692 42.735C24.4968 42.467 23.3822 41.9114 22.7473 41.0528C20.8962 42.6743 19.1303 42.4539 18.1683 42.1334C16.4714 41.5674 14.9527 39.9777 13.5248 37.2717C12.5082 35.3451 11.5244 32.8338 10.6007 29.8091C8.99287 24.541 7.97131 18.9924 7.88053 17.1713C7.59506 11.4691 9.12959 7.39156 12.4415 5.05258C17.6669 1.36172 25.5829 3.53172 28.4687 4.51719C30.4074 3.34852 32.6884 2.77922 35.2664 2.82078C36.6511 2.8432 37.969 2.96516 39.1935 3.18281C40.4704 2.78141 42.9937 2.205 45.8818 2.24055C51.2029 2.30399 55.6123 4.37773 58.6327 8.23758C60.7879 10.9916 59.7226 16.7743 58.8952 19.9768C57.732 24.4803 55.6927 29.2715 53.188 33.442C53.8683 33.4469 54.8533 33.3648 56.2544 33.0761C59.0183 32.5052 59.826 33.9872 60.0453 34.6505C60.9241 37.3122 57.1042 39.323 55.9126 39.8759C54.3857 40.5852 51.8969 41.0167 49.8581 40.9232L49.769 40.9172L49.2336 40.8702L49.1805 41.3164L49.1297 41.7534C48.9929 47.0384 48.2377 50.3852 46.684 52.5973C45.056 54.9156 42.7925 55.5658 40.7991 55.9929C40.1892 56.1282 39.5667 56.1984 38.9419 56.2023ZM34.894 36.9666C36.1359 37.9602 36.2447 39.83 36.3415 43.3245C36.3536 43.7604 36.3651 44.1733 36.3804 44.5588C36.4274 45.7259 36.5373 48.4591 36.965 49.6141C37.0257 49.7771 37.0798 49.9434 37.1367 50.1184C37.6136 51.5796 37.8531 52.3119 39.9154 51.87C41.6473 51.4992 42.5371 51.1662 43.2338 50.1741C44.2466 48.7315 44.8132 45.8314 44.9171 41.5516L47.0237 41.603L44.9313 41.352L44.9926 40.8297C45.1933 39.1081 45.3376 37.8634 46.4888 37.0409C47.4119 36.3809 48.4647 36.4448 49.303 36.5958C48.3821 35.9007 48.1272 35.0837 48.0594 34.749L47.8839 33.8838L48.3772 33.151C51.2209 28.9313 53.5665 23.7453 54.8122 18.9224C56.0919 13.9666 55.7015 11.3345 55.3115 10.8369C50.1458 4.23555 41.1863 6.96063 40.2511 7.2707L40.0926 7.35602L39.2996 7.50422L38.8933 7.42C37.7738 7.18758 36.5302 7.05906 35.1964 7.03719C33.1013 7.00219 31.4115 7.49711 30.0257 8.54875L29.0643 9.27774L27.9481 8.81781C25.5648 7.84328 18.5626 5.88383 14.8679 8.50063C12.8172 9.95313 11.8831 12.7996 12.0909 16.9608C12.1593 18.3345 13.0933 23.5348 14.6322 28.5791C16.7601 35.5496 18.6939 37.8645 19.5011 38.1341C19.6416 38.1817 20.0075 37.8973 20.3712 37.4609C22.7369 34.6155 24.9868 32.2438 25.0814 32.1437L26.3015 30.8602L27.7764 31.8402C28.3708 32.2355 29.0265 32.4592 29.7003 32.5013L33.2183 29.5012L32.7087 34.702C32.6972 34.819 32.6917 34.9776 32.7376 35.2729L32.8908 36.2589L32.2274 37.0016L32.1508 37.0874L34.0835 37.9799L34.894 36.9666Z" fill="#336791"/>
<path d="M56.6814 35.1411C50.5476 36.406 50.126 34.3295 50.126 34.3295C56.6021 24.7204 59.3091 12.5223 56.9729 9.53695C50.5991 1.39289 39.5664 5.24453 39.3821 5.34461L39.3225 5.355C38.1106 5.10398 36.7549 4.95414 35.2308 4.92953C32.4554 4.88414 30.3499 5.65687 28.7525 6.8682C28.7525 6.8682 9.07046 -1.23977 9.98593 17.0658C10.1806 20.9601 15.5679 46.5325 21.9931 38.8084C24.3414 35.9844 26.6104 33.5962 26.6104 33.5962C27.7375 34.3448 29.0866 34.7266 30.5014 34.5893L30.6113 34.4963C30.5774 34.8469 30.5927 35.1898 30.6551 35.5955C29.0002 37.4456 29.4859 37.7705 26.1773 38.4513C22.8287 39.1415 24.7959 40.3698 26.0805 40.6908C27.6374 41.0807 31.2391 41.6325 33.6727 38.2249L33.5754 38.6138C34.224 39.1333 34.6795 41.9929 34.603 44.5851C34.5264 47.1773 34.4755 48.9568 34.9869 50.347C35.4982 51.7366 36.0073 54.8647 40.3572 53.9328C43.9917 53.1535 45.8751 51.135 46.1376 47.7684C46.3236 45.3748 46.7441 45.7286 46.7709 43.5881L47.1089 42.5748C47.4977 39.3296 47.1707 38.2829 49.4101 38.7702L49.9543 38.8177C51.6026 38.8932 53.7594 38.5525 55.0255 37.9641C57.7522 36.6986 59.3693 34.586 56.6814 35.1411Z" fill="#336791"/>
<path d="M39.1617 54.903C35.5354 54.9035 34.387 52.0319 33.9167 50.8577C33.2292 49.1373 33.0805 42.4588 33.2336 36.9819C33.2438 36.799 33.325 36.6274 33.4598 36.5034C33.5946 36.3794 33.7724 36.3129 33.9555 36.3181C34.1386 36.3232 34.3124 36.3995 34.4401 36.5309C34.5677 36.6622 34.6391 36.8381 34.6391 37.0212C34.4625 43.3382 34.7135 49.0623 35.2221 50.3355C36.0167 52.3217 37.2214 54.0591 40.629 53.3296C43.8638 52.6356 45.0751 51.409 45.6143 48.282C46.0289 45.8817 46.847 39.054 46.9476 37.7065C46.9615 37.5206 47.0486 37.3479 47.1898 37.2262C47.331 37.1046 47.5148 37.044 47.7007 37.0579C47.8865 37.0717 48.0593 37.1589 48.1809 37.3001C48.3025 37.4413 48.3631 37.6251 48.3492 37.8109C48.2442 39.2131 47.4294 46.0283 46.999 48.5209C46.3619 52.2151 44.7153 53.8907 40.9232 54.7039C40.3447 54.8318 39.7543 54.8985 39.1617 54.903ZM19.501 40.8784C19.1841 40.878 18.8694 40.8261 18.5692 40.7247C16.2138 39.9388 13.9705 36.103 11.9011 29.3229C10.3261 24.1615 9.32808 18.7748 9.24058 17.0242C8.98081 11.8344 10.3179 8.16211 13.2136 6.11023C18.9427 2.05078 28.5808 5.91664 28.9882 6.08289C29.1592 6.15444 29.295 6.29065 29.366 6.46184C29.437 6.63304 29.4376 6.82536 29.3675 6.99693C29.2974 7.16851 29.1623 7.30544 28.9917 7.37792C28.8211 7.4504 28.6288 7.45255 28.4567 7.38391V7.38445C28.3637 7.34617 19.1215 3.64383 14.0235 7.25922C11.5473 9.01523 10.4103 12.2768 10.6439 16.9548C10.7177 18.4291 11.6501 23.6873 13.2453 28.9133C15.0927 34.9655 17.1954 38.7855 19.0138 39.3914C19.2987 39.4871 20.1671 39.7764 21.4096 38.2834C23.7459 35.4725 25.8924 33.2292 25.9137 33.2068C26.0444 33.0802 26.2191 33.0091 26.4011 33.0086C26.5831 33.0081 26.7582 33.0781 26.8896 33.204C27.021 33.3299 27.0985 33.5019 27.1058 33.6837C27.1131 33.8655 27.0496 34.0431 26.9287 34.1791C26.9074 34.201 24.7937 36.4109 22.4903 39.182C21.3992 40.4934 20.3531 40.8784 19.501 40.8784ZM50.0823 34.9562C49.9547 34.9564 49.8294 34.9218 49.72 34.8562C49.6106 34.7905 49.5211 34.6963 49.4612 34.5836C49.4013 34.4709 49.3733 34.344 49.3801 34.2166C49.3869 34.0891 49.4283 33.966 49.4999 33.8603C56.0465 24.1456 58.3445 12.408 56.3763 9.89352C53.8989 6.7282 50.4006 5.07445 45.9791 4.97984C42.7049 4.90875 40.1024 5.74492 39.6775 5.89094L39.5708 5.93414C39.1432 6.06867 38.815 5.83406 38.6914 5.56008C38.621 5.4031 38.6104 5.2258 38.6615 5.06153C38.7127 4.89726 38.8221 4.75735 38.9692 4.66812L39.1585 4.59047L39.1492 4.5932L39.159 4.58992C39.8814 4.32578 42.5234 3.53281 45.7964 3.57055C50.6893 3.62195 54.7307 5.50922 57.4837 9.02672C58.7864 10.6914 58.7891 14.5266 57.4919 19.5486C56.1696 24.6684 53.6813 30.1716 50.6658 34.6462C50.6015 34.7418 50.5147 34.8202 50.4129 34.8743C50.3111 34.9284 50.1976 34.9565 50.0823 34.9562ZM50.4164 39.4532C49.2986 39.4532 48.2967 39.2962 47.6968 38.9364C47.08 38.5673 46.9624 38.0647 46.9471 37.7984C46.7786 34.843 48.4094 34.3284 49.2412 34.0938C49.1253 33.9188 48.9601 33.7127 48.79 33.4999C48.305 32.894 47.641 32.0638 47.1292 30.8224C47.0493 30.6288 46.7978 30.1777 46.5068 29.6559C44.9302 26.8291 41.65 20.9464 43.7571 17.9337C44.7328 16.5397 46.6742 15.9912 49.5354 16.2974C48.6938 13.7331 44.6852 5.71102 35.175 5.55516C32.3143 5.50703 29.9682 6.38695 28.2057 8.16648C24.2589 12.1527 24.4021 19.3648 24.4038 19.4365C24.4062 19.5287 24.3904 19.6206 24.3573 19.7067C24.3242 19.7928 24.2745 19.8716 24.211 19.9386C24.1475 20.0055 24.0714 20.0593 23.9871 20.0968C23.9028 20.1343 23.8119 20.1549 23.7196 20.1573C23.6274 20.1597 23.5356 20.1439 23.4494 20.1108C23.3633 20.0777 23.2845 20.028 23.2176 19.9645C23.1506 19.9009 23.0969 19.8249 23.0593 19.7406C23.0218 19.6562 23.0013 19.5654 22.9989 19.4731C22.9901 19.1532 22.8425 11.585 27.2071 7.17719C29.2496 5.11437 31.9381 4.09609 35.198 4.14914C41.2836 4.24922 45.1998 7.34234 47.4141 9.92031C49.8269 12.7291 51.0103 15.8277 51.1077 16.8612C51.1804 17.6302 50.6286 17.7844 50.5171 17.8068L50.2639 17.8128C47.4557 17.3633 45.6542 17.675 44.9094 18.7398C43.3065 21.0301 46.4095 26.5945 47.7346 28.9713C48.0731 29.5772 48.317 30.0152 48.4285 30.2859C48.8639 31.3414 49.4315 32.0507 49.8876 32.6205C50.2885 33.122 50.6363 33.5562 50.761 34.067C50.8184 34.1682 51.6376 35.379 56.4966 34.376C57.7145 34.125 58.4446 34.3399 58.6677 35.0148C59.1068 36.3431 56.6432 37.8919 55.2792 38.5257C54.0553 39.0939 52.1046 39.4532 50.4164 39.4532ZM48.3487 37.6824C48.5024 37.8383 49.2735 38.1063 50.8709 38.0379C52.2906 37.9766 53.7885 37.6677 54.6875 37.2509C55.8371 36.7172 56.6038 36.1205 57.0014 35.7131L56.7804 35.7536C53.6736 36.3951 51.4763 36.3098 50.2496 35.4993C50.1671 35.4449 50.0877 35.3859 50.0117 35.3227C49.8789 35.3752 49.7558 35.4096 49.6683 35.4342C48.9721 35.6295 48.2524 35.8312 48.3487 37.6824ZM28.28 41.6084C27.5084 41.6084 26.6963 41.504 25.8667 41.2956C25.0075 41.0807 23.5583 40.4337 23.5807 39.3712C23.6053 38.1784 25.3395 37.8208 25.993 37.6863C28.3511 37.2006 28.5048 37.0059 29.242 36.0702C29.4569 35.7973 29.7243 35.4577 30.0885 35.0503C30.63 34.4449 31.2217 34.1376 31.8473 34.1376C32.2826 34.1376 32.6403 34.2858 32.876 34.3831C33.6285 34.6948 34.2563 35.4484 34.5144 36.3508C34.7474 37.1645 34.6364 37.9477 34.2016 38.5558C32.7753 40.5535 30.7278 41.6084 28.28 41.6084ZM25.0989 39.4319C25.311 39.5954 25.7354 39.8141 26.2074 39.9328C26.926 40.1122 27.6227 40.2035 28.28 40.2035C30.2827 40.2035 31.89 39.3739 33.0581 37.7393C33.3014 37.398 33.2287 36.9655 33.1636 36.7374C33.0269 36.2605 32.6878 35.8269 32.3384 35.6814C32.1486 35.6027 31.9917 35.5425 31.8473 35.5425C31.7696 35.5425 31.5339 35.5425 31.1364 35.9871C30.8006 36.3623 30.5594 36.6685 30.3456 36.9392C29.4279 38.1046 29.0074 38.5 26.2763 39.0627C25.6102 39.2005 25.2684 39.3395 25.0989 39.4319ZM30.5031 36.19C30.3353 36.1897 30.1732 36.1295 30.0459 36.0202C29.9187 35.9109 29.8347 35.7597 29.8091 35.5939C29.7911 35.4772 29.7794 35.3597 29.7741 35.2417C27.9836 35.2078 26.2566 34.44 24.9457 33.0717C23.2882 31.342 22.5335 28.9455 22.8758 26.4972C23.2477 23.8383 23.1088 21.4911 23.0339 20.23C23.0151 19.9706 23.0036 19.7107 22.9994 19.4507C23.0005 19.2287 23.0049 18.6386 24.9764 17.6395C25.6775 17.284 27.0835 16.6638 28.6191 16.5047C31.1642 16.2422 32.8415 17.3753 33.3435 19.6962C34.6987 25.9634 33.4507 28.7355 32.5396 30.7595C32.3696 31.1358 32.2093 31.4923 32.0814 31.8369L31.9682 32.1415C31.4869 33.4321 31.0707 34.5472 31.1987 35.3806C31.2268 35.5649 31.1807 35.7527 31.0705 35.903C30.9603 36.0533 30.795 36.1538 30.6108 36.1823L30.5031 36.19ZM24.4092 19.6448L24.4371 20.1469C24.5148 21.4566 24.6592 23.8946 24.2676 26.6924C23.9854 28.7115 24.6023 30.683 25.9602 32.0999C27.0332 33.2199 28.4463 33.8379 29.8982 33.8379H29.9283C30.0913 33.1527 30.3609 32.4297 30.6513 31.6504L30.7639 31.348C30.9089 30.9586 31.0784 30.5818 31.2578 30.1831C32.135 28.2341 33.2265 25.8081 31.9692 19.9932C31.7199 18.842 31.1161 18.1754 30.1235 17.9555C28.0848 17.5049 25.0469 19.0384 24.4092 19.6448ZM28.6508 19.3468C28.6158 19.5951 29.1064 20.2584 29.7451 20.347C30.3833 20.4362 30.9296 19.9177 30.9641 19.6695C30.9985 19.4206 30.5085 19.1472 29.8692 19.058C29.231 18.9689 28.6847 19.098 28.6508 19.3468ZM29.8922 20.592L29.7128 20.5795C29.3164 20.5242 28.9155 20.2743 28.6415 19.9106C28.5453 19.7832 28.3878 19.5349 28.4189 19.314C28.4638 18.9897 28.8586 18.7961 29.476 18.7961C29.6144 18.7961 29.7577 18.8065 29.9026 18.8262C30.2395 18.8732 30.5528 18.9705 30.7842 19.0996C31.185 19.3238 31.2146 19.5732 31.1965 19.7028C31.1467 20.0599 30.5769 20.592 29.8922 20.592ZM28.8838 19.3884C28.904 19.5415 29.283 20.0473 29.7774 20.1157L29.8917 20.1239C30.3478 20.1239 30.689 19.7646 30.7289 19.647C30.6868 19.5672 30.3937 19.3676 29.837 19.291C29.7173 19.2738 29.5965 19.265 29.4755 19.2648C29.1189 19.2642 28.9281 19.3446 28.8838 19.3884ZM48.0906 18.8398C48.125 19.0887 47.6356 19.752 46.9963 19.8406C46.3575 19.9292 45.8112 19.4113 45.7762 19.1625C45.7423 18.9142 46.2323 18.6402 46.871 18.5516C47.5098 18.462 48.0556 18.5921 48.0906 18.8398ZM46.8492 19.9675C46.2339 19.9675 45.704 19.489 45.6603 19.1789C45.6099 18.8065 46.223 18.5232 46.8552 18.4357C46.9941 18.416 47.1319 18.4062 47.2648 18.4062C47.81 18.4062 48.171 18.5664 48.2071 18.824C48.2306 18.9913 48.1026 19.2489 47.8817 19.4808C47.7362 19.6339 47.43 19.8991 47.0132 19.9566L46.8492 19.9675ZM47.2642 18.6402C47.1423 18.6402 47.0154 18.6495 46.8869 18.667C46.2514 18.7551 45.8735 19.0105 45.8916 19.1472C45.9129 19.297 46.3182 19.7334 46.8486 19.7334L46.9793 19.7241C47.326 19.6755 47.5864 19.4496 47.7105 19.3189C47.9052 19.1138 47.9828 18.9213 47.9735 18.8552C47.9621 18.7693 47.728 18.6402 47.2642 18.6402ZM49.011 33.1067C48.8837 33.1066 48.7588 33.072 48.6497 33.0065C48.5405 32.941 48.4512 32.8471 48.3913 32.7348C48.3314 32.6225 48.3031 32.496 48.3095 32.3689C48.3159 32.2417 48.3566 32.1187 48.4275 32.013C49.9237 29.7779 49.6497 27.498 49.385 25.2941C49.2718 24.3545 49.1553 23.3838 49.186 22.4514C49.2166 21.4927 49.338 20.702 49.4561 19.9363C49.5956 19.0302 49.7274 18.1732 49.6727 17.1571C49.6687 16.9745 49.7359 16.7975 49.86 16.6635C49.9842 16.5296 50.1556 16.4492 50.338 16.4394C50.5204 16.4296 50.6995 16.4911 50.8373 16.611C50.9751 16.7309 51.0609 16.8996 51.0765 17.0816C51.1389 18.2432 50.9896 19.2123 50.8452 20.1502C50.7336 20.8737 50.6182 21.6218 50.5903 22.4963C50.5635 23.3215 50.6691 24.1981 50.7807 25.1256C51.0628 27.4701 51.3817 30.1273 49.5956 32.7945C49.4599 32.9968 49.2374 33.1067 49.011 33.1067Z" fill="white"/>
<path d="M1.55042 56.4288C2.33561 56.3014 3.13004 56.2396 3.92549 56.2439C5.14776 56.2439 6.04409 56.5283 6.61284 57.0402C7.13893 57.4952 7.45174 58.1919 7.45174 59.0455C7.45174 59.9129 7.19526 60.5954 6.71182 61.093C6.05776 61.7898 4.99135 62.1452 3.78276 62.1452C3.41307 62.1452 3.07182 62.131 2.78799 62.0599V65.8995H1.55042V56.4288ZM2.78799 61.0498C3.05815 61.1209 3.3994 61.1494 3.81174 61.1494C5.30416 61.1494 6.21471 60.4242 6.21471 59.1019C6.21471 57.8364 5.31893 57.225 3.95393 57.225C3.41362 57.225 3.00127 57.2677 2.78799 57.3245V61.0498ZM14.945 62.4006C14.945 64.9458 13.1814 66.0554 11.5178 66.0554C9.6551 66.0554 8.21901 64.6904 8.21901 62.5144C8.21901 60.2109 9.72619 58.8602 11.6315 58.8602C13.6085 58.8596 14.945 60.2962 14.945 62.4006ZM9.48502 62.4717C9.48502 63.9789 10.3524 65.1164 11.5752 65.1164C12.7696 65.1164 13.6648 63.9931 13.6648 62.4433C13.6648 61.2773 13.0824 59.7986 11.6031 59.7986C10.1238 59.7986 9.48502 61.1636 9.48502 62.4717ZM16.3521 64.6188C16.7218 64.8605 17.3759 65.1164 18.0015 65.1164C18.9115 65.1164 19.3381 64.6614 19.3381 64.0927C19.3381 63.4955 18.9831 63.1684 18.0584 62.8272C16.8214 62.3864 16.2384 61.7039 16.2384 60.8792C16.2384 59.7702 17.1342 58.8602 18.6129 58.8602C19.3096 58.8602 19.9216 59.0592 20.3055 59.2867L19.9927 60.1967C19.5695 59.9359 19.0821 59.7981 18.585 59.7986C17.8456 59.7986 17.4333 60.2252 17.4333 60.737C17.4333 61.3058 17.8462 61.5617 18.742 61.903C19.9364 62.358 20.5478 62.9552 20.5478 63.9789C20.5478 65.1875 19.6093 66.0406 17.9742 66.0406C17.2206 66.0406 16.5239 65.8558 16.0404 65.5714L16.3521 64.6188ZM23.6611 57.0396V59.016H25.4521V59.9687H23.6611V63.6798C23.6611 64.5329 23.9023 65.0163 24.5996 65.0163C24.844 65.0199 25.0878 64.9912 25.3247 64.931L25.3816 65.8695C25.1404 65.969 24.756 66.0401 24.2731 66.0401C23.6901 66.0401 23.2203 65.8552 22.9217 65.514C22.5668 65.1443 22.4383 64.5329 22.4383 63.7224V59.9687H21.3719V59.016H22.4383V57.3666L23.6611 57.0396ZM32.7042 59.0166C32.6753 59.5142 32.6474 60.0688 32.6474 60.9077V64.9031C32.6474 66.4814 32.3346 67.4483 31.6663 68.046C30.998 68.6716 30.0311 68.8707 29.1638 68.8707C28.3391 68.8707 27.4291 68.6716 26.874 68.302L27.1868 67.3493C27.6418 67.6337 28.3528 67.8896 29.2059 67.8896C30.4856 67.8896 31.424 67.2213 31.424 65.4866V64.7188H31.3956C31.0117 65.3587 30.2723 65.8705 29.2059 65.8705C27.4996 65.8705 26.2768 64.4202 26.2768 62.5144C26.2768 60.1825 27.7982 58.8602 29.3765 58.8602C30.5714 58.8602 31.2255 59.4858 31.5241 60.0545H31.5525L31.6094 59.0166H32.7042ZM31.4103 61.7323C31.4103 61.5191 31.3961 61.3342 31.3392 61.1636C31.1117 60.4384 30.5003 59.8413 29.5903 59.8413C28.3954 59.8413 27.5428 60.8508 27.5428 62.4433C27.5428 63.7941 28.2253 64.9173 29.5761 64.9173C30.3439 64.9173 31.0406 64.4339 31.3108 63.6377C31.3819 63.4244 31.4109 63.1827 31.4109 62.9694L31.4103 61.7323ZM34.6374 61.1636C34.6374 60.3531 34.6232 59.6564 34.5806 59.0166H35.676L35.7181 60.3673H35.7749C36.0878 59.4431 36.8414 58.8602 37.6803 58.8602C37.8224 58.8602 37.9214 58.8744 38.0352 58.9028V60.083C37.8953 60.0525 37.7523 60.0382 37.6092 60.0403C36.7276 60.0403 36.1014 60.7086 35.9314 61.647C35.8962 61.8394 35.8772 62.0344 35.8745 62.23V65.8984H34.6374V61.1636ZM39.842 62.685C39.8705 64.377 40.9506 65.0737 42.2018 65.0737C43.0981 65.0737 43.6379 64.9173 44.1071 64.7183L44.3204 65.6141C43.8796 65.8131 43.126 66.0406 42.0312 66.0406C39.9126 66.0406 38.6471 64.6472 38.6471 62.5713C38.6471 60.4953 39.8699 58.8596 41.8748 58.8596C44.1213 58.8596 44.7185 60.836 44.7185 62.1015C44.7185 62.3574 44.6901 62.5565 44.6759 62.6845L39.842 62.685ZM43.5105 61.7892C43.5242 60.993 43.1829 59.7559 41.7758 59.7559C40.5103 59.7559 39.9558 60.9219 39.8557 61.7892H43.5105Z" fill="#336791"/>
<path d="M46.1404 64.3912C46.8107 64.7939 47.5766 65.0099 48.3585 65.0169C49.624 65.0169 50.3634 64.3486 50.3634 63.3817C50.3634 62.4859 49.8515 61.9741 48.5576 61.4764C46.9935 60.9219 46.0266 60.1114 46.0266 58.7606C46.0266 57.2677 47.2637 56.1586 49.1263 56.1586C50.1074 56.1586 50.8184 56.3861 51.2449 56.6278L50.9037 57.6373C50.3443 57.3366 49.7187 57.1802 49.0837 57.1823C47.7755 57.1823 47.2779 57.9644 47.2779 58.6184C47.2779 59.5142 47.8603 59.955 49.1832 60.4669C50.8041 61.093 51.6288 61.8745 51.6288 63.2822C51.6288 64.7609 50.534 66.0406 48.2732 66.0406C47.349 66.0406 46.3394 65.7705 45.827 65.4292L46.1404 64.3912ZM61.2265 67.3061C59.9904 66.9817 58.7668 66.6118 57.558 66.197C57.359 66.1259 57.1599 66.0548 56.9751 66.0548C54.7001 65.9695 52.7521 64.2917 52.7521 61.2062C52.7521 58.135 54.629 56.1586 57.2168 56.1586C59.8188 56.1586 61.5114 58.1777 61.5114 61.0072C61.5114 63.467 60.3739 65.0453 58.7814 65.5998V65.6567C59.7341 65.8984 60.772 66.1259 61.5825 66.2681L61.2265 67.3061ZM60.2027 61.0641C60.2027 59.1445 59.208 57.1676 57.1741 57.1676C55.084 57.1676 54.0602 59.1013 54.0744 61.1778C54.0602 63.2111 55.1835 65.0453 57.1173 65.0453C59.0942 65.0453 60.2027 63.2537 60.2027 61.0641ZM63.117 56.315H64.3546V64.8605H68.4496V65.8984H63.117V56.315Z" fill="#336791"/>
</svg>
