<svg width="70" height="70" viewBox="0 0 70 70" fill="none" xmlns="http://www.w3.org/2000/svg">
<path fill-rule="evenodd" clip-rule="evenodd" d="M0.666626 30.7103C0.666626 31.0948 0.779829 31.3485 0.843267 31.5952C1.2567 33.1991 2.14538 34.5756 3.19975 35.8312C4.70147 37.6206 6.54061 39.0611 8.42459 40.4157C10.0587 41.5904 11.7261 42.7388 13.3667 43.9048C13.6483 44.1049 13.9147 44.3352 14.2204 44.5807C13.9573 44.7229 13.7386 44.8481 13.5111 44.9635C11.346 46.0616 9.26295 47.2927 7.34288 48.784C6.18569 49.683 5.06678 50.6384 4.27655 51.887C3.00506 53.8951 2.55499 56.0345 3.50272 58.3187C3.77944 58.9859 4.20163 59.5623 4.79717 59.9884C4.99022 60.1262 5.20678 60.2629 5.43264 60.3165C6.01124 60.4527 6.60077 60.5418 7.18647 60.6495L8.84514 60.6484C10.6794 60.4849 12.349 59.8566 13.8578 58.8153C16.2159 57.1878 17.8046 55.0058 18.4876 52.2052C18.9842 50.1698 19.0044 48.1321 18.4193 46.1059C18.3633 45.9182 18.2987 45.7332 18.2257 45.5514C18.1546 45.3693 18.0709 45.1921 17.9725 44.9652L21.7328 42.8028L21.7891 42.8509C21.7208 43.0746 21.648 43.2977 21.5862 43.5236C21.1394 45.1555 20.8425 46.8158 20.9491 48.5095C21.0629 50.3141 21.5665 52.0034 22.6231 53.5112C23.4773 54.7307 25.5128 54.7761 26.4206 53.5522C26.7427 53.1174 27.055 52.663 27.2896 52.1779C27.9026 50.9119 28.4703 49.6234 29.056 48.3438L29.1583 48.1097C29.1162 48.7156 29.0669 49.2477 29.0445 49.7804C29.0095 50.6122 29.0582 51.4391 29.3426 52.2304C29.5859 52.9074 29.9999 53.4133 30.7754 53.5024C31.3058 53.5631 31.7286 53.3203 32.1185 53.0124C32.7226 52.5351 33.2233 51.9398 33.5901 51.263C34.6297 49.3538 35.6973 47.4562 36.6395 45.4989C37.6589 43.382 38.5503 41.2032 39.4969 39.0502L39.6533 38.6684C39.877 39.5473 40.0329 40.408 40.32 41.2229C40.6536 42.1684 41.0665 43.0916 41.516 43.989C41.7287 44.4128 41.7041 44.6879 41.4094 45.0434C40.1756 46.5309 38.9632 48.0364 37.7497 49.5403C37.4812 49.8723 37.2137 50.2102 36.9901 50.5728C36.8544 50.8018 36.7652 51.0553 36.7276 51.3187C36.6899 51.5613 36.7477 51.8091 36.8887 52.01C37.0297 52.211 37.243 52.3495 37.4839 52.3966C37.9701 52.5014 38.4687 52.5369 38.9648 52.5022C40.6585 52.3775 42.1963 51.783 43.5558 50.7757C45.3173 49.4709 45.8828 47.6902 45.4562 45.5798C45.3408 45.0073 45.1369 44.4506 44.9383 43.8988C44.8492 43.6499 44.8432 43.4755 45.0056 43.2436C46.4138 41.2327 47.6169 39.0994 48.7358 36.9168C48.7801 36.8309 48.8255 36.7451 48.9032 36.6532C49.2658 38.5399 49.8115 40.3583 50.7894 42.0082C50.2906 42.4889 49.7968 42.9248 49.35 43.4049C48.3662 44.4626 47.513 45.611 47.0679 47.0116C46.8765 47.6153 46.7294 48.2289 46.8147 48.8737C46.947 49.875 47.7673 50.5258 48.7523 50.2977C50.8599 49.8099 52.6794 48.8168 54.0088 47.0575C54.9035 45.873 54.985 44.5517 54.6104 43.1676C54.5076 42.7913 54.3856 42.4211 54.2544 41.9896C54.7744 41.8283 55.2814 41.6347 55.8058 41.5149C58.5287 40.8937 61.2221 41.002 63.846 41.9852C65.3778 42.5595 66.6154 43.5203 67.3493 45.0319C68.2456 46.8798 67.7501 48.633 66.0083 49.8012C65.8459 49.91 65.66 49.9959 65.5255 50.132C65.4824 50.182 65.4501 50.2404 65.4308 50.3034C65.4115 50.3665 65.4056 50.4329 65.4133 50.4984C65.4248 50.5657 65.6026 50.6499 65.7048 50.6488C66.2774 50.6445 66.7417 50.3442 67.1874 50.0358C68.3041 49.2631 69.119 48.2234 69.2945 46.8546L69.329 46.7518L69.2869 45.8604C69.2699 45.809 69.2994 45.7581 69.2956 45.7193C69.0583 43.7259 67.9935 42.1799 66.4447 40.968C64.651 39.5653 62.533 38.9878 60.293 38.8965C58.4762 38.8183 56.6618 39.0976 54.9527 39.7184C54.4622 39.8962 53.976 40.1067 53.4827 40.3052C53.4165 40.1855 53.3455 40.0706 53.2869 39.952C52.7805 38.9151 52.1669 37.9241 52.0313 36.7352C51.9351 35.8909 51.8169 35.0476 52.0176 34.2125C52.2107 33.4091 52.4622 32.6195 52.699 31.827C52.821 31.4191 52.7351 31.1905 52.3458 31.0067C52.2101 30.9391 52.0653 30.8915 51.9159 30.8656C50.9589 30.7267 50.015 30.806 49.088 31.0756C48.7599 31.1713 48.5215 31.3551 48.4487 31.7182C48.4072 31.9266 48.3224 32.1262 48.2633 32.3318C48.0211 33.1866 47.8494 34.0577 47.4578 34.872C46.4767 36.9146 45.3567 38.8801 44.2105 40.8313C44.0863 41.0419 43.9556 41.2486 43.7992 41.504C43.3967 40.6618 42.9674 39.906 42.8372 39.0201C42.6901 38.0182 42.5742 37.018 42.8236 36.0238C43.009 35.2822 43.2512 34.5543 43.4744 33.8226C43.5799 33.4748 43.5312 33.2921 43.2162 33.1089C43.0571 33.0165 42.8772 32.9345 42.6978 32.9077C41.7165 32.7582 40.7138 32.8402 39.7698 33.1472C39.4729 33.2434 39.317 33.4354 39.2262 33.7416C38.9594 34.6451 38.7319 35.5704 38.3573 36.4295C36.8402 39.9077 35.2794 43.3677 33.7203 46.8273C33.3949 47.5497 33.0137 48.247 32.6468 48.9502C32.5538 49.1285 32.4182 49.2855 32.3022 49.4528C32.2093 49.3429 32.1732 49.2674 32.1737 49.192C32.1765 48.7473 32.1234 48.2896 32.2082 47.8598C32.4685 46.5597 32.7562 45.2654 33.0712 43.9775C33.3282 42.9133 33.6273 41.8589 33.9123 40.8018C34.008 40.448 34.0096 40.1171 33.7553 39.8196C33.3282 39.3214 32.4357 39.212 31.9063 39.5959L31.6723 39.7283L31.7176 39.3509C31.8292 38.5421 31.8516 37.736 31.6296 36.9392C31.3529 35.9461 30.6441 35.3746 29.6138 35.4063C29.1337 35.4211 28.6294 35.5031 28.1848 35.6781C26.3151 36.4109 24.8773 37.7087 23.6534 39.27C23.54 39.415 23.3993 39.5364 23.2394 39.6277C21.6573 40.5048 20.0703 41.3711 18.4838 42.2406L16.718 43.208C16.2444 42.7563 15.814 42.2877 15.3256 41.8901C13.8343 40.6738 12.3189 39.4877 10.8172 38.2851C9.48608 37.2192 8.19655 36.1091 7.20999 34.6976C6.47608 33.6476 6.00303 32.4986 5.95764 31.2003C5.90022 29.546 6.36944 28.0345 7.21163 26.6273C8.28897 24.827 9.75842 23.3822 11.3739 22.0735C13.0829 20.6899 14.9313 19.5152 16.847 18.4428C19.5273 16.9427 22.284 15.6149 25.2399 14.7383C28.2707 13.8392 31.3458 13.3246 34.5176 13.6834C35.7645 13.8245 36.9753 14.1099 38.0871 14.7197C38.9386 15.1862 39.6369 15.797 39.9618 16.7519C40.2822 17.6914 40.2724 18.6435 40.0504 19.5978C39.5992 21.5305 38.541 23.1235 37.2094 24.547C35.0251 26.8805 32.3608 28.4692 29.3612 29.5187C27.6365 30.1229 25.842 30.5056 24.0209 30.6578C22.5285 30.783 21.0672 30.6507 19.6541 30.1317C18.7184 29.7877 17.9036 29.2616 17.2484 28.4982C17.1314 28.3615 16.9815 28.2133 16.7633 28.3413C16.5495 28.467 16.5118 28.6705 16.5834 28.8766C16.7032 29.219 16.8137 29.5755 17.0001 29.8818C17.4688 30.6502 18.1524 31.2074 18.9049 31.6854C20.3503 32.6047 21.9658 32.9137 23.6408 32.9853C26.1827 33.0952 28.6628 32.7157 31.1079 32.0338C34.5986 31.0603 37.6337 29.3409 40.0679 26.6284C42.0946 24.3698 43.5422 21.8209 43.8522 18.743C44.0037 17.2408 43.8424 15.7691 43.1391 14.3987C42.3762 12.9139 41.1633 11.8098 39.713 11.0491C37.6009 9.94164 35.3215 9.29688 32.9689 9.29688H30.6119C27.7626 9.29688 25.008 10.1134 22.3305 11.0873C20.3038 11.8251 18.3165 12.6957 16.3871 13.6593C12.1855 15.7587 8.27256 18.2902 5.05858 21.7711C3.45733 23.5052 2.10163 25.4187 1.32178 27.6719C1.08641 28.3446 0.883648 29.0282 0.714204 29.7205M15.9387 49.4151C15.7565 51.8536 14.6513 53.8305 12.845 55.4318C11.8289 56.332 10.6635 56.9729 9.30616 57.1982C8.81397 57.2797 8.3103 57.2994 7.83288 57.0954C7.15202 56.8045 6.99944 56.2002 6.98631 55.5565C6.96608 54.5305 7.32538 53.603 7.81811 52.7204C8.46124 51.5698 9.40405 50.6926 10.4108 49.8734C11.9968 48.5822 13.7173 47.4895 15.4793 46.4581L15.6122 46.4034C15.8845 47.4097 16.0141 48.4034 15.9387 49.4151ZM29.6969 38.8172C29.5684 39.5959 29.4076 40.3752 29.1801 41.1299C28.3937 43.7423 27.3837 46.2738 26.2915 48.7714C26.0898 49.2335 25.7961 49.6552 25.5407 50.0932C25.4972 50.1605 25.4452 50.2219 25.3859 50.2759C25.0698 50.5881 24.7701 50.5717 24.6105 50.1632C24.4245 49.6885 24.3102 49.1805 24.2118 48.6779C24.1456 48.3405 24.1615 47.9861 24.1407 47.6405C24.162 45.1828 24.9118 42.9494 26.1838 40.8702C26.7083 40.0127 27.2792 39.1956 28.1515 38.6531C28.4228 38.4844 28.7164 38.3545 29.0237 38.267C29.4886 38.1363 29.774 38.3513 29.6969 38.8172ZM39.0835 50.7762L42.4572 46.8371C42.5977 48.3 40.1111 51.2203 39.0835 50.7762ZM49.8586 48.1255C49.6201 48.2623 49.3604 48.3607 49.1159 48.487C48.8922 48.603 48.8184 48.4859 48.8119 48.2934C48.8086 48.1602 48.8257 48.0272 48.8627 47.8991C49.3183 46.2924 50.1566 44.9209 51.404 43.8052L51.4915 43.7604C52.0849 45.4202 51.3991 47.2429 49.8586 48.1255Z" fill="#CB6699"/>
</svg>
