<svg width="75" height="75" viewBox="0 0 75 75" fill="none" xmlns="http://www.w3.org/2000/svg">
<g clip-path="url(#clip0_5_242)">
<path d="M0.590625 57.9023C0.235547 57.7266 0 57.3123 0 56.8406C0 56.1311 0.530859 55.6002 1.24043 55.6002C1.47656 55.6002 1.71211 55.6594 1.89082 55.7783C3.18809 56.6643 4.60723 57.0762 5.8459 57.0762C7.20527 57.0762 7.97168 56.4855 7.97168 55.5996V55.541C7.97168 54.4787 6.49512 54.1236 4.90254 53.652C2.89277 53.0619 0.649805 52.2334 0.649805 49.6354V49.5756C0.649805 46.9781 2.77676 45.4424 5.49316 45.4424C6.96973 45.4424 8.44629 45.8566 9.80273 46.5662C10.217 46.8018 10.5703 47.2137 10.5703 47.7469C10.5703 48.4541 9.9791 48.9855 9.27188 48.9855C9.03633 48.9855 8.85762 48.9281 8.62148 48.8092C7.50059 48.2186 6.3791 47.8635 5.43398 47.8635C4.19297 47.8635 3.54316 48.4541 3.54316 49.2229V49.2803C3.54316 50.2852 5.01973 50.6994 6.61465 51.2309C8.62207 51.8209 10.865 52.766 10.865 55.1883V55.2451C10.865 58.1408 8.62207 59.5576 5.78848 59.5576C4.07402 59.5576 2.18555 59.0262 0.590625 57.9023ZM23.0895 52.5305C23.0895 49.8709 21.3182 48.1594 19.1941 48.1594C17.0672 48.1594 15.2367 49.9307 15.2367 52.5305V52.5879C15.2367 55.1883 17.0678 56.959 19.1941 56.959C21.3182 56.8406 23.0895 55.1883 23.0895 52.5305ZM12.2244 47.0373C12.2244 46.152 12.8748 45.4424 13.7602 45.4424C13.9698 45.4416 14.1775 45.4823 14.3712 45.5622C14.565 45.6421 14.7411 45.7596 14.8893 45.9079C15.0374 46.0561 15.1548 46.2323 15.2345 46.4261C15.3143 46.62 15.3548 46.8277 15.3539 47.0373V47.983C16.3582 46.5662 17.775 45.4424 19.9605 45.4424C23.1492 45.4424 26.2805 47.983 26.2805 52.4713V52.5305C26.2805 57.017 23.2084 59.5576 19.9605 59.5576C17.7152 59.5576 16.2984 58.4355 15.3533 57.1951V61.9787C15.3533 62.8647 14.6461 63.5145 13.7602 63.5145C13.5582 63.5157 13.358 63.4768 13.1712 63.4001C12.9844 63.3234 12.8147 63.2104 12.6719 63.0676C12.5291 62.9248 12.416 62.7551 12.3393 62.5682C12.2626 62.3814 12.2238 62.1812 12.225 61.9793V47.0379M27.5777 46.9781C27.5777 46.0922 28.2281 45.385 29.1135 45.385C29.3231 45.384 29.5308 45.4245 29.7247 45.5041C29.9186 45.5838 30.0948 45.7011 30.2431 45.8492C30.3914 45.9973 30.5089 46.1733 30.5889 46.3671C30.6689 46.5608 30.7097 46.7685 30.709 46.9781V47.7469C30.8848 46.5662 32.7762 45.4424 34.1332 45.4424C35.1381 45.4424 35.6689 46.0928 35.6689 46.9775C35.6689 47.8037 35.1381 48.3375 34.4285 48.4541C32.1855 48.8684 30.6492 50.7568 30.6492 53.4738V57.9621C30.6492 58.7883 29.9402 59.4979 29.0543 59.4979C28.8524 59.4992 28.6522 59.4603 28.4654 59.3836C28.2786 59.3069 28.1089 59.1938 27.9662 59.0509C27.8235 58.908 27.7107 58.7381 27.6342 58.5512C27.5578 58.3643 27.5193 58.164 27.5209 57.9621V46.9781M37.0857 46.9781C37.085 46.7685 37.1259 46.5608 37.2058 46.3671C37.2858 46.1733 37.4033 45.9973 37.5516 45.8492C37.7 45.7011 37.8762 45.5838 38.07 45.5041C38.2639 45.4245 38.4716 45.384 38.6812 45.385C38.8908 45.384 39.0985 45.4246 39.2923 45.5043C39.4861 45.584 39.6622 45.7013 39.8105 45.8494C39.9587 45.9975 40.0762 46.1735 40.1562 46.3672C40.2361 46.5609 40.2769 46.7686 40.2762 46.9781V57.9621C40.2762 58.848 39.5672 59.4979 38.6812 59.4979C37.7953 59.4979 37.0857 58.8475 37.0857 57.9621V46.9781ZM41.6338 47.0373C41.633 46.8276 41.6737 46.6199 41.7536 46.426C41.8335 46.2322 41.9509 46.0561 42.0992 45.9078C42.2475 45.7595 42.4236 45.6421 42.6174 45.5622C42.8113 45.4823 43.019 45.4416 43.2287 45.4424C44.1146 45.4424 44.8811 46.1514 44.8811 47.0373V47.6877C45.767 46.4473 47.127 45.4424 49.3107 45.4424C52.5012 45.4424 54.3299 47.509 54.3299 50.6397V57.9621C54.3299 58.848 53.6227 59.4979 52.7361 59.4979C51.8514 59.4979 51.082 58.8475 51.082 57.9621V51.5854C51.082 49.459 49.9605 48.2783 48.0703 48.2783C46.1813 48.2783 44.8816 49.5188 44.8816 51.6428V57.9621C44.8816 58.848 44.1744 59.4979 43.2293 59.4979C42.3434 59.4979 41.6338 58.8475 41.6338 57.9621V47.0373ZM62.4803 56.8998C60.2947 56.8998 58.4654 55.2451 58.4654 52.5305V52.4713C58.4654 49.8141 60.2941 48.0996 62.4803 48.0996C64.6658 48.0996 66.5543 49.8709 66.5543 52.4707V52.5305C66.5543 55.1285 64.6658 56.8998 62.4803 56.8998ZM68.09 45.5016C67.8804 45.5009 67.6728 45.5417 67.479 45.6216C67.2852 45.7016 67.1092 45.8191 66.9611 45.9675C66.813 46.1158 66.6957 46.292 66.6161 46.4858C66.5364 46.6797 66.4959 46.8875 66.4969 47.0971V48.0422C65.4328 46.623 64.016 45.5016 61.7133 45.5016C58.4062 45.5016 55.2152 48.0422 55.2152 52.5879V52.6477C55.2152 57.1359 58.4062 59.7334 61.7133 59.7334C64.016 59.7334 65.4926 58.6119 66.4969 57.3721C66.3187 59.8523 64.783 61.0928 62.066 61.0928C60.4729 61.0928 59.0561 60.6791 57.7559 60.0287C57.5801 59.9695 57.4014 59.9121 57.1658 59.9121C56.3982 59.9121 55.8064 60.5027 55.8064 61.21C55.8064 61.8006 56.1609 62.2148 56.6941 62.4504C58.4062 63.2766 60.1184 63.6908 62.1258 63.6908C64.6658 63.6908 66.6141 63.1002 67.9137 61.8598C69.0949 60.7383 69.7447 59.0262 69.7447 56.7211V47.0379C69.6855 46.1525 68.976 45.5027 68.09 45.5027M40.2762 41.6637C40.2762 42.4898 39.5672 43.2 38.6812 43.2C37.7953 43.2 37.0857 42.4904 37.0857 41.6637C37.0857 40.8375 37.7947 40.1285 38.6812 40.1285C39.5666 40.1285 40.2762 40.8375 40.2762 41.6637ZM48.5438 31.4467C45.0598 36.0539 37.5598 34.5182 32.7164 34.6945C32.7164 34.6945 31.8902 34.7543 31.0043 34.8732C31.0043 34.8732 31.3594 34.7543 31.7115 34.5779C35.0783 33.4564 36.6738 33.2186 38.7404 32.1562C42.5789 30.2086 46.4174 26.0156 47.1838 21.6439C45.7072 25.8369 41.2787 29.4393 37.2053 30.9158C34.4279 31.9207 29.4088 32.8658 29.4088 32.8658L29.233 32.7469C25.8064 31.1514 25.6898 23.8893 31.9494 21.5842C34.6664 20.5816 37.2639 21.1125 40.217 20.4627C43.3459 19.7555 47.008 17.451 48.4846 14.4387C50.1387 19.3412 52.1473 26.8418 48.5438 31.4467ZM48.6029 13.0219C48.197 13.9467 47.6816 14.8195 47.0678 15.6217C44.4697 13.0219 40.8668 11.4287 36.8502 11.4287C28.9969 11.4287 22.6178 17.6883 22.6178 25.3055C22.6178 29.3203 24.3896 32.9227 27.1658 35.4633L27.4611 35.7586C26.9303 35.3443 26.8705 34.5779 27.283 34.1039C27.6973 33.573 28.4637 33.5133 28.9969 33.9281C29.5283 34.3418 29.5875 35.1088 29.1732 35.5805C28.759 36.1137 27.992 36.1705 27.4611 35.7586L27.6973 35.935C30.2847 38.0362 33.5164 39.183 36.8496 39.1828C44.3502 39.1828 50.4914 33.4564 51.0246 26.3104C51.4963 22.8246 50.434 18.3363 48.6029 13.0213M73.4643 46.4479H72.9334V47.1568H73.4643C73.643 47.1568 73.8187 47.0379 73.8187 46.8023C73.8187 46.5668 73.643 46.4479 73.4643 46.4479ZM73.7596 48.2191L73.2287 47.393H72.8736V48.2191H72.5783V46.2117H73.4045C73.7596 46.2117 74.0549 46.4479 74.0549 46.8023C74.0603 46.9505 74.0078 47.095 73.9086 47.2052C73.8095 47.3154 73.6713 47.3827 73.5234 47.393L74.0549 48.2191H73.7596ZM73.2879 45.6809C72.4617 45.6809 71.7522 46.3283 71.7522 47.1574C71.7522 47.9836 72.4617 48.6334 73.2879 48.6334C74.1141 48.6334 74.8236 47.983 74.8236 47.1568C74.8236 46.3881 74.1146 45.6803 73.2885 45.6803L73.2879 45.6809ZM73.2879 48.9855C72.283 48.9855 71.4568 48.2191 71.4568 47.2143C71.4568 46.2123 72.283 45.443 73.2879 45.443C74.2904 45.443 75.1189 46.2117 75.1189 47.2143C75.1189 48.1594 74.2904 48.9855 73.2879 48.9855Z" fill="#5FB832"/>
</g>
<defs>
<clipPath id="clip0_5_242">
<rect width="75" height="75" fill="white"/>
</clipPath>
</defs>
</svg>
