<svg width="71" height="72" viewBox="0 0 71 72" fill="none" xmlns="http://www.w3.org/2000/svg">
<path d="M63.8577 4.63295C62.8773 6.98489 61.6222 9.21264 60.1187 11.2698C53.531 4.68594 44.5988 0.986971 35.2851 0.98584C16.0236 0.98584 0.172974 16.8496 0.172974 36.1324C0.172769 40.8941 1.13941 45.6062 3.01432 49.9832C4.88923 54.3602 7.63336 58.311 11.0804 61.596L12.3754 62.7444C18.7043 68.0805 26.7148 71.0094 34.9931 71.0143C53.3063 71.0143 68.7008 56.6643 70.0045 38.3751C70.9621 29.4222 68.336 18.0987 63.8577 4.63295ZM16.069 61.7962C15.7871 62.1435 15.4312 62.4236 15.0273 62.616C14.6235 62.8085 14.1818 62.9084 13.7344 62.9085C12.0839 62.9085 10.7337 61.5501 10.7337 59.8996C10.7337 58.2497 12.0927 56.8912 13.7344 56.8912C14.418 56.8912 15.0934 57.128 15.6222 57.5661C16.9079 58.6051 17.1086 60.5104 16.069 61.7962ZM63.7122 51.2754C55.048 62.8265 36.5434 58.9333 24.6784 59.4894C24.6784 59.4894 22.5719 59.6174 20.456 59.9636C20.456 59.9636 21.249 59.6262 22.2798 59.234C30.6066 56.3351 34.5463 55.7696 39.6076 53.1714C49.138 48.3212 58.559 37.709 60.5201 26.6682C56.8905 37.2896 45.8912 46.4158 35.8686 50.1264C29.0015 52.6612 16.5978 55.1226 16.5978 55.1226L16.0963 54.858C7.65149 50.7465 7.39555 32.4487 22.7447 26.5408C29.4663 23.9513 35.8959 25.3737 43.1557 23.6412C50.9077 21.7999 59.8726 15.9828 63.5202 8.39764C67.6059 20.5328 72.5223 39.5323 63.7122 51.2754Z" fill="white"/>
</svg>
