<svg width="55" height="55" viewBox="0 0 55 55" fill="none" xmlns="http://www.w3.org/2000/svg">
<g clip-path="url(#clip0_5_250)">
<path d="M9.74097 20.1953H52.5679V51.8504H9.74097V20.1953Z" fill="white"/>
<path d="M0.644531 27.4613V54.3168H54.3555V0.605858H0.644531V27.4613ZM43.927 25.3129C45.2134 25.6114 46.3826 26.2842 47.2871 27.2465C47.7851 27.7649 48.2179 28.3421 48.5762 28.9652C48.5762 29.034 46.2559 30.6023 44.8422 31.4789C44.7906 31.5133 44.5844 31.2898 44.3566 30.9504C44.0986 30.5051 43.7319 30.1324 43.2908 29.8672C42.8498 29.6019 42.3487 29.4528 41.8344 29.4336C40.2059 29.3219 39.1574 30.177 39.166 31.582C39.1525 31.9319 39.2326 32.2789 39.398 32.5875C39.7547 33.3309 40.4207 33.7734 42.509 34.6758C46.3547 36.3301 48.0004 37.4215 49.023 38.9727C50.166 40.6914 50.4195 43.4672 49.6461 45.5211C48.7867 47.7555 46.6812 49.2723 43.7035 49.775C42.3435 49.9308 40.9693 49.9163 39.6129 49.732C37.5339 49.3893 35.6189 48.3912 34.1473 46.8832C33.6531 46.3375 32.6906 44.9152 32.7508 44.8121C32.9076 44.6957 33.0728 44.5908 33.2449 44.4984L35.2344 43.3984L36.777 42.5047L37.0992 42.9816C37.6431 43.7596 38.3352 44.4226 39.1359 44.9324C40.8547 45.8348 43.2008 45.7102 44.3609 44.666C44.7505 44.2834 44.9935 43.7763 45.0476 43.233C45.1018 42.6897 44.9637 42.1446 44.6574 41.6926C44.2277 41.0953 43.3684 40.5926 40.9664 39.5441C38.1949 38.3496 37.0004 37.6105 35.909 36.4332C35.2276 35.6563 34.7246 34.7397 34.4352 33.7477C34.2193 32.6143 34.1873 31.4536 34.3406 30.3102C34.9121 27.6332 36.9188 25.7641 39.8492 25.2098C41.2064 25.0418 42.5811 25.0795 43.927 25.3215V25.3129ZM31.3199 27.5645V29.7644H24.3461V49.6289H19.4004V29.7602H12.4094V27.6117C12.3876 26.8708 12.4048 26.1293 12.4609 25.3902C12.4953 25.3516 16.7578 25.3516 21.9141 25.3516H31.2941L31.3199 27.5645Z" fill="#007ACC"/>
</g>
<defs>
<clipPath id="clip0_5_250">
<rect width="55" height="55" fill="white"/>
</clipPath>
</defs>
</svg>
