<svg width="255" height="188" viewBox="0 0 255 188" fill="none" xmlns="http://www.w3.org/2000/svg">
<path d="M34.3558 148.749L4.31356 29.1L7.12222 20.7241L12.4999 12.4367L22.9357 7.14747L30.6428 7.41272L38.1901 13.3208L43.1684 19.1405L68.7116 116.042L134.947 138.091L140.245 132.625L148.112 127.247L156.138 116.226L164.085 108.027L171.792 108.293L182.068 108.646L192.104 117.464L191.625 134.393L156.87 181.208L138.727 186.232L34.3558 148.749Z" fill="white"/>
<path d="M221.638 34.1411L254.816 152.882L252.243 161.357L247.106 169.827L236.847 175.464L229.157 175.453L221.474 169.789L216.355 164.13L188.275 68.0044L121.656 48.1247L116.523 53.7692L108.827 59.41L101.124 70.7028L93.4238 79.1695L85.7343 79.1583L75.4815 79.1432L65.239 70.6502L65.2594 53.6942L98.6387 5.70083L116.588 0.0750838L221.638 34.1411Z" fill="white"/>
<path d="M218.041 35.0176L251.22 153.759L248.646 162.233L243.51 170.703L233.25 176.34L225.561 176.329L217.878 170.666L212.758 165.006L184.679 68.8809L118.06 49.0012L112.927 54.6457L105.23 60.2865L97.5271 71.5792L89.8273 80.046L82.1378 80.0347L71.885 80.0197L61.6425 71.5267L61.6629 54.5706L95.0422 6.57731L112.991 0.951564L218.041 35.0176Z" fill="white"/>
<ellipse cx="128.159" cy="91.3088" rx="25.6319" ry="28.2601" fill="white"/>
</svg>
